<svg width="80" height="28" viewBox="0 0 80 28" fill="none" xmlns="http://www.w3.org/2000/svg">
<path d="M34.3165 16.3446C34.3165 17.8042 33.8112 19.0842 32.7558 20.1284C31.7116 21.1726 30.454 21.6891 28.9944 21.6891H23.6611V27.0112H21V18.9944H23.6611H29.0056C29.7242 18.9944 30.3418 18.7361 30.8695 18.2196C31.386 17.7032 31.6667 17.0744 31.6667 16.3446C31.6667 15.626 31.4084 14.986 30.8695 14.4695C30.353 13.953 29.7242 13.6947 29.0056 13.6947H23.6611L21 11H28.9944C30.454 11 31.7116 11.5165 32.7558 12.5607C33.8 13.6161 34.3165 14.8849 34.3165 16.3446Z" fill="#222729"/>
<path d="M37.0025 24.3165L35.6439 27H32.6797L40.6853 11L46.0299 21.6779H43.032L40.6965 16.9733L38.3386 21.6779L37.0025 24.3165ZM48.6797 27H45.7042L44.3793 24.3389H47.3435L48.6797 27Z" fill="#222729"/>
<path d="M60.7054 22.52L63.3665 23.3958C63.0072 23.9347 62.5917 24.44 62.0865 24.8779C61.6037 25.3158 61.0872 25.6975 60.5033 26.0232C59.9419 26.3375 59.3468 26.5846 58.6844 26.7418C58.0444 26.9214 57.3819 27 56.6858 27C54.4626 27 52.61 26.2028 51.0493 24.6421C49.4886 23.0814 48.6914 21.2175 48.6914 19.0056C48.6914 16.8049 49.4661 14.9298 51.0493 13.3691C52.5763 11.7747 54.4626 11 56.6858 11C57.7861 11 58.8303 11.2021 59.8072 11.6175C60.7616 12.033 61.6261 12.6168 62.3672 13.3579L60.4472 15.233C59.403 14.1888 58.1679 13.6723 56.6858 13.6723C55.2261 13.6723 53.9686 14.1775 52.9019 15.233C51.8577 16.2772 51.3637 17.5347 51.3637 18.9944C51.3637 20.454 51.8689 21.734 52.9019 22.7782C53.9461 23.8225 55.2261 24.3165 56.6858 24.3165C57.483 24.3165 58.224 24.1593 58.9089 23.8561C59.5826 23.5418 60.1777 23.1039 60.7054 22.52ZM56.6858 17.6807H63.3665L60.7054 20.3418H56.6858V17.6807Z" fill="#222729"/>
<path d="M79.961 11L76.6375 13.6835H66.6445V11H79.961ZM76.6375 20.3418H66.6445V17.6807H76.6375V20.3418ZM79.961 26.7754V27H66.6445V24.3165H76.6375L79.961 26.7754Z" fill="#222729"/>
<path d="M6.375 12.15C6.86667 12.775 7.1125 13.5958 7.1125 14.6125C7.1125 15.6375 6.86667 16.4667 6.375 17.1C5.8 17.825 5.02083 18.1875 4.0375 18.1875C3.0125 18.1875 2.23333 17.8083 1.7 17.05V18H0.875V9H1.8V12.0375C2.38333 11.3875 3.14167 11.0625 4.075 11.0625C5.05 11.0625 5.81667 11.425 6.375 12.15ZM5.6375 16.525C5.97083 16.0833 6.1375 15.4458 6.1375 14.6125C6.1375 13.8042 5.96667 13.1708 5.625 12.7125C5.24167 12.1792 4.675 11.9125 3.925 11.9125C3.19167 11.9125 2.63333 12.1625 2.25 12.6625C1.88333 13.1292 1.7 13.7792 1.7 14.6125C1.7 15.4625 1.88333 16.1167 2.25 16.575C2.64167 17.0833 3.20417 17.3375 3.9375 17.3375C4.67917 17.3375 5.24583 17.0667 5.6375 16.525ZM13.2531 11.2625H14.1906L11.0906 19.325C10.849 19.9833 10.5448 20.4458 10.1781 20.7125C9.91979 20.9042 9.52813 21 9.00313 21L8.82813 20.9875V20.1L9.05313 20.125C9.35313 20.1417 9.58229 20.0917 9.74063 19.975C9.86563 19.875 9.98646 19.7083 10.1031 19.475C10.2198 19.2417 10.3948 18.8125 10.6281 18.1875L7.70313 11.25H8.65313L11.0656 17.0125L13.2531 11.2625Z" fill="#222729"/>
</svg>
