<svg xmlns="http://www.w3.org/2000/svg" fill="none" viewBox="0 0 95 32"><path fill="#222729" d="M41.194 19.23c0 1.716-.595 3.222-1.836 4.45-1.229 1.23-2.708 1.837-4.425 1.837h-6.275v6.261h-3.13v-9.431h9.418c.845 0 1.572-.304 2.193-.912.607-.607.937-1.347.937-2.206 0-.845-.303-1.598-.938-2.206a3.004 3.004 0 0 0-2.192-.911h-6.288l-3.13-3.17h9.404c1.718 0 3.197.607 4.426 1.835 1.228 1.242 1.836 2.735 1.836 4.452zM44.355 28.608l-1.598 3.157H39.27l9.418-18.824 6.288 12.563h-3.527L48.7 19.969l-2.774 5.535-1.572 3.104zm13.738 3.157h-3.5l-1.56-3.13h3.488l1.572 3.13zM72.24 26.494l3.13 1.03a8.559 8.559 0 0 1-1.506 1.744c-.568.515-1.175.965-1.862 1.348-.66.37-1.36.66-2.14.845a8.63 8.63 0 0 1-2.351.304c-2.616 0-4.795-.938-6.631-2.774-1.837-1.836-2.775-4.029-2.775-6.631 0-2.59.912-4.795 2.775-6.631 1.796-1.876 4.015-2.788 6.63-2.788 1.295 0 2.524.238 3.673.727a9.741 9.741 0 0 1 3.012 2.047l-2.26 2.206c-1.228-1.228-2.68-1.836-4.424-1.836-1.718 0-3.197.595-4.452 1.836-1.228 1.229-1.81 2.708-1.81 4.426 0 1.717.595 3.223 1.81 4.451 1.228 1.229 2.734 1.81 4.452 1.81.938 0 1.81-.185 2.615-.542a6.546 6.546 0 0 0 2.114-1.572zm-4.73-5.693h7.86l-3.13 3.13h-4.73v-3.13zM94.893 12.941l-3.91 3.158H79.227V12.94h15.666zm-3.91 10.99H79.227v-3.13h11.756v3.13zm3.91 7.57v.264H79.227v-3.157h11.756l3.91 2.893zM8.324 14.118c.579.735.868 1.7.868 2.897 0 1.206-.29 2.181-.868 2.926-.676.853-1.593 1.28-2.75 1.28-1.206 0-2.122-.447-2.75-1.339V21h-.97V10.412h1.088v3.573c.686-.764 1.578-1.147 2.676-1.147 1.147 0 2.05.427 2.706 1.28zm-.867 5.147c.392-.52.588-1.27.588-2.25 0-.951-.201-1.696-.603-2.236-.451-.627-1.118-.94-2-.94-.863 0-1.52.293-1.97.882-.432.549-.648 1.313-.648 2.294 0 1 .216 1.77.647 2.308.461.599 1.123.898 1.986.898.872 0 1.539-.319 2-.956zm8.96-6.192h1.102l-3.647 9.486c-.284.774-.642 1.319-1.073 1.632-.304.226-.765.338-1.383.338l-.206-.014V23.47l.265.029c.353.02.623-.04.809-.177.147-.117.289-.313.426-.588.137-.274.343-.78.618-1.514l-3.441-8.162h1.117l2.839 6.78 2.573-6.765z"/></svg>