<svg xmlns="http://www.w3.org/2000/svg" fill="none" viewBox="0 0 131 155"><path fill="#222729" d="M43.972 16.99l-.189 1.162.189-1.162zm7.9-2.94l-.897-.763.897.762zm-29.734 9.626l-1.176-.02 1.176.02zm10.023-8.602l.189-1.161-.189 1.16zM17.73 43.353l-.616-1.003.616 1.003zm4.203-7.447l1.177.02-1.177-.02zM5.205 62.83l.922-.73-.922.73zm2.272-13.18l.616 1.003-.616-1.003zm6.716 31.152l-1.115-.376 1.115.376zm-1.46-8.469l-.922.731.922-.73zm4.106 31.623l.229-1.154-.23 1.154zm-6.542-11.59l1.115.376-1.115-.376zm24.721 19.448l-1.101.413 1.101-.413zm-6.44-5.527l-.23 1.154.23-1.154zm23.018 21.525l-.58-1.024.58 1.024zm-12.295-4.578l1.102-.413-1.102.413zm31.16-1.355l-.58 1.023.58-1.023zm-8.407 0l.58 1.023-.58-1.023zm31.16 1.355l1.101.413-1.102-.413zm-12.296 4.578l.58-1.024-.58 1.024zm23.018-21.525l.23 1.154-.23-1.154zm-6.44 5.527l-1.101-.413 1.101.413zm24.722-19.448l1.115-.376-1.115.376zm-6.542 11.59l-.23-1.154.23 1.154zm4.106-31.623l-.923-.73.923.73zm-1.46 8.469l-1.115.375 1.115-.375zm6.715-31.152l-.615 1.003.615-1.003zm2.273 13.18l.922.73-.922-.73zm-16.728-26.924l1.177-.02-1.177.02zm4.204 7.447l.615-1.003-.615 1.003zm-14.433-28.28l-.188-1.16.188 1.16zm10.023 8.603l-1.176.02 1.176-.02zM80.643 14.05l-.897.762.897-.762zm7.9 2.941l.188 1.162-.188-1.162zM72.799 4.816l.897-.762-.897.762zm-13.084 0l.897.762-.897-.762zm65.322 138.372l-.264 1.146a1.179 1.179 0 0 0 1.365-1.563l-1.101.417zm-21.219-4.892l.264-1.146a1.178 1.178 0 0 0-1.072.291l.808.855zm-15.986 15.088l-1.085.456a1.177 1.177 0 0 0 1.892.4l-.807-.856zm-52.826 0l-1.033.563a1.177 1.177 0 0 0 2.02.078l-.987-.641zm-10.728-19.698l1.033-.563a1.175 1.175 0 0 0-1.033-.614v1.177zm-22.63 0l-.977-.655a1.177 1.177 0 0 0 .977 1.831v-1.176zm92.088-77.932l.841.823-.841-.823zM64.847 85.303l-.841-.823.841.823zm-6.81 0l.842-.823-.841.823zm-19.258-19.7l-.842.823.842-.822zm6.809-6.964l.841-.823-.841.823zm15.854 16.217l-.84.822a1.177 1.177 0 0 0 1.682 0l-.842-.822zm25.485-26.067l-.842-.822.842.822zM71.903 5.578l7.843 9.233 1.793-1.524-7.843-9.233-1.793 1.524zM88.73 18.15l11.811-1.916-.377-2.322-11.81 1.916.376 2.322zm20.469 5.545l.206 12.23 2.353-.04-.206-12.23-2.353.04zm4.97 20.66l10.252 6.297 1.231-2.005-10.252-6.298-1.231 2.005zm12.217 17.743l-7.528 9.504 1.845 1.461 7.528-9.504-1.845-1.46zm-9.18 19.078l3.896 11.564 2.23-.75-3.896-11.565-2.23.751zm-1.761 21.625l-11.739 2.331.459 2.308 11.739-2.331-.459-2.308zm-19.051 8.599l-4.283 11.42 2.203.826 4.283-11.42-2.203-.826zm-14.896 15.387l-10.458-5.932-1.16 2.046 10.457 5.933 1.16-2.047zm-20.026-5.932l-10.457 5.932 1.16 2.047 10.458-5.933-1.16-2.046zm-21.07 1.965l-4.283-11.42-2.203.826 4.282 11.42 2.204-.826zm-11.596-17.688l-11.739-2.331-.458 2.308 11.739 2.331.458-2.308zM11.412 92.742l3.895-11.565-2.23-.75L9.183 91.99l2.23.752zm2.243-21.139L6.127 62.1 4.283 63.56l7.528 9.504 1.844-1.46zm-5.562-20.95l10.252-6.298-1.232-2.005-10.252 6.297 1.232 2.006zm15.016-14.727l.205-12.23-2.352-.04-.206 12.23 2.353.04zm8.864-19.69l11.81 1.915.377-2.322-11.81-1.916-.377 2.322zm20.796-1.425l7.843-9.233-1.794-1.524-7.843 9.233 1.794 1.524zm-8.986 3.34c3.366.547 6.762-.722 8.986-3.34l-1.794-1.524c-1.698 2-4.275 2.954-6.815 2.542l-.377 2.322zm-20.469 5.545c.08-4.7 4.194-8.185 8.659-7.46l.377-2.323c-5.94-.964-11.286 3.67-11.388 9.744l2.352.04zm-4.97 20.66c2.913-1.79 4.706-4.979 4.765-8.43l-2.353-.04c-.045 2.664-1.429 5.104-3.643 6.464l1.232 2.005zM6.127 62.098c-2.884-3.641-1.94-9.047 1.966-11.446L6.86 48.648C1.736 51.796.535 58.828 4.283 63.56l1.844-1.46zm9.18 19.078c1.1-3.266.48-6.883-1.652-9.574l-1.844 1.461a7.849 7.849 0 0 1 1.267 7.362l2.23.751zm1.761 21.625c-4.45-.883-7.154-5.614-5.656-10.06l-2.23-.752c-1.935 5.742 1.535 11.95 7.428 13.12l.458-2.308zm19.052 8.599c-1.21-3.228-3.97-5.604-7.313-6.268l-.458 2.308c2.526.502 4.636 2.303 5.568 4.786l2.203-.826zm14.896 15.387c-3.96 2.247-8.974.406-10.613-3.967l-2.204.826c2.134 5.689 8.724 8.168 13.978 5.188l-1.161-2.047zm20.025-5.932a9.672 9.672 0 0 0-9.568 0l1.161 2.046a7.321 7.321 0 0 1 7.246 0l1.161-2.046zm21.071 1.965c-1.64 4.373-6.653 6.214-10.613 3.967l-1.161 2.047c5.253 2.98 11.844.501 13.977-5.188l-2.203-.826zm11.595-17.688c-3.343.664-6.102 3.04-7.312 6.268l2.203.826c.931-2.483 3.041-4.284 5.568-4.786l-.459-2.308zm17.396-12.391c1.498 4.446-1.207 9.177-5.657 10.06l.459 2.308c5.893-1.17 9.362-7.378 7.428-13.12l-2.23.752zm-2.244-21.139a10.204 10.204 0 0 0-1.652 9.575l2.23-.752a7.848 7.848 0 0 1 1.267-7.362l-1.845-1.461zm5.563-20.95c3.906 2.399 4.85 7.805 1.965 11.446l1.845 1.461c3.747-4.731 2.547-11.764-2.579-14.913l-1.231 2.006zm-15.016-14.727c.058 3.451 1.851 6.64 4.764 8.43l1.231-2.006c-2.214-1.36-3.598-3.8-3.642-6.464l-2.353.04zm-8.864-19.69c4.465-.725 8.579 2.76 8.658 7.46l2.353-.04c-.103-6.073-5.448-10.707-11.388-9.743l.377 2.322zM79.746 14.81c2.224 2.618 5.619 3.887 8.985 3.34l-.377-2.322c-2.54.412-5.116-.542-6.815-2.542l-1.793 1.524zm-6.05-10.757a9.717 9.717 0 0 0-14.878 0l1.794 1.524a7.364 7.364 0 0 1 11.29 0l1.794-1.524zm51.606 137.987l-21.22-4.891-.529 2.293 21.22 4.891.529-2.293zm-22.292-4.6l-15.986 15.088 1.615 1.711 15.986-15.088-1.615-1.711zm-14.094 15.488l-11.944-28.427-2.17.911 11.945 28.427 2.17-.911zm20.537-47.539l14.484 38.214 2.201-.833-14.484-38.215-2.201.834zM36.04 152.822L25.31 133.123l-2.066 1.125 10.728 19.699 2.066-1.125zm-11.762-20.313H1.648v2.353h22.63v-2.353zM2.626 134.34l19.35-28.904-1.955-1.309L.67 133.031l1.955 1.309zm47.983-7.169l-16.59 25.573 1.974 1.281 16.59-25.573-1.974-1.281zm43.968-70.595c2.327-2.38 2.327-6.229 0-8.609l-1.682 1.645c1.433 1.466 1.433 3.854 0 5.32l1.682 1.645zM65.688 86.125l28.889-29.548-1.682-1.645-28.89 29.548 1.683 1.645zm-8.491 0a5.916 5.916 0 0 0 8.491 0l-1.682-1.645a3.563 3.563 0 0 1-5.127 0l-1.682 1.645zm-19.26-19.699l19.26 19.699 1.682-1.645-19.26-19.699-1.682 1.645zm0-8.61c-2.327 2.38-2.327 6.23 0 8.61l1.683-1.645c-1.433-1.466-1.433-3.854 0-5.32l-1.683-1.645zm8.492 0a5.916 5.916 0 0 0-8.492 0l1.683 1.645a3.563 3.563 0 0 1 5.127 0l1.682-1.645zm15.855 16.217L46.429 57.816l-1.682 1.645L60.6 75.678l1.683-1.645zm23.801-26.066L60.601 74.033l1.683 1.645 25.484-26.066-1.683-1.645zm8.492 0a5.916 5.916 0 0 0-8.492 0l1.683 1.645a3.563 3.563 0 0 1 5.127 0l1.682-1.645zm14.481 18.809c0 23.65-19.173 42.823-42.824 42.823v2.353c24.95 0 45.177-20.226 45.177-45.176h-2.353zm-42.824 42.823c-23.651 0-42.824-19.172-42.824-42.823h-2.353c0 24.95 20.226 45.176 45.177 45.176v-2.353zM23.41 66.776c0-23.651 19.173-42.824 42.824-42.824v-2.353c-24.95 0-45.177 20.226-45.177 45.177h2.353zm42.824-42.824c23.65 0 42.824 19.173 42.824 42.824h2.353c0-24.95-20.227-45.177-45.177-45.177v2.353z"/></svg>