<svg xmlns="http://www.w3.org/2000/svg" fill="none" viewBox="0 0 268 51"><path fill="#004F64" fill-rule="evenodd" d="M251.731 18.968h10.929V14.99h-10.929v-9.5h9.827v2.21h3.967V3.546a1.978 1.978 0 0 0-1.983-1.988h-18.907v3.976h3.129V30.5c0 1.105.882 1.989 1.984 1.989h15.468a1.977 1.977 0 0 0 1.983-1.989v-4.197h-3.966v2.209h-11.502v-9.544zm-59.76 14.14V29.13c6.699 0 12.12-5.435 12.12-12.151 0-6.717-5.421-12.152-12.12-12.152V.852c8.858 0 16.042 7.202 16.042 16.083 0 8.97-7.184 16.172-16.042 16.172zm25.693-25.32l1.543 2.52 12.56 20.016 1.322 2.12H237.452V5.492h3.393V1.514H235.469a1.977 1.977 0 0 0-1.983 1.989v22.756c-.089-.133-.133-.266-.221-.398-.441-.751-.881-1.458-1.322-2.21L218.942 2.929l-.881-1.414h-4.363v26.954h-3.394v3.977H215.681a1.977 1.977 0 0 0 1.983-1.989V7.79zM191.971.897v3.976c-6.699 0-12.119 5.435-12.119 12.152 0 6.716 5.42 12.15 12.119 12.15v3.978c-8.638 0-15.689-6.85-16.042-15.466v-1.28c.353-8.661 7.36-15.51 16.042-15.51zM175.929 5.49V1.514v3.977zm0-3.932v3.976h-9.739v22.977h3.173v3.977H159.05v-3.977h3.174V5.535h-9.035V1.56H175.929zm0 14.802V17.686v-1.325zm-61.742 2.342v-3.977h3.569a4.634 4.634 0 0 0 4.628-4.64 4.633 4.633 0 0 0-4.628-4.64h-3.569V1.47h3.569c4.716 0 8.55 3.889 8.55 8.572 0 3.226-1.807 6.054-4.407 7.512 1.631 1.193 2.997 2.828 3.746 4.728.441 1.104.705 2.297.661 3.49v6.584h-1.983a1.977 1.977 0 0 1-1.983-1.988V24.58c0-.928-.309-1.856-.838-2.607-.837-1.282-2.291-2.342-3.878-3.27H114.187zm0-17.144v3.976h-8.197v9.279h8.197v3.977h-8.197v13.742h-1.984a1.978 1.978 0 0 1-1.983-1.988V5.49h-3.129V1.514h15.293v.045zm-92.945 0H17.54v26.953h-3.437v3.977H19.479a1.977 1.977 0 0 0 1.983-1.989V7.79l1.543 2.518 12.56 20.017 1.322 2.12H41.25V5.492h3.393V1.514H39.267a1.978 1.978 0 0 0-1.983 1.989v22.756c-.088-.133-.133-.266-.22-.398-.441-.751-.882-1.458-1.323-2.21L22.696 2.929l-.881-1.414h-.573v.045zM7.139 5.49v22.977h3.173v3.977H0v-3.977h3.173V5.49H0V1.514H10.312v3.977H7.14zm54.295 0v22.977h3.173v3.977H54.295v-3.977h3.173V5.49h-9.035V1.514H70.47v3.977h-9.035zm15.954 0v24.965c0 1.105.881 1.989 1.983 1.989H94.84a1.978 1.978 0 0 0 1.983-1.989V26.26h-3.966v2.209H81.354v-9.5h10.93V14.99h-10.93v-9.5h9.828v2.21h3.966V3.546a1.977 1.977 0 0 0-1.983-1.988H74.258v3.976h3.13v-.044z" clip-rule="evenodd"/><path fill="#CF3620" fill-rule="evenodd" d="M142.743 18.968h.088c2.6 0 4.76 2.12 4.76 4.772 0 2.607-2.116 4.772-4.76 4.772h-16.526v3.977h16.526c4.76 0 8.682-3.933 8.682-8.705s-3.922-8.704-8.682-8.704H141.377v.044-.045h-2.556c-2.6 0-4.76-2.12-4.76-4.772 0-2.607 2.115-4.772 4.76-4.772h14.543V1.56h-14.543c-4.76 0-8.682 3.932-8.682 8.704s3.922 8.705 8.682 8.705H142.743z" clip-rule="evenodd"/></svg>