<svg xmlns="http://www.w3.org/2000/svg" fill="none" viewBox="0 0 59 54"><path fill="#fff" d="M29.41 4.496l.244-.437-.245-.136-.244.136.244.437zm-7.946 4.45h-.5V9.8l.744-.416-.244-.437zm0-8.051h.5v-.5h-.5v.5zm-8.353 0v-.5h-.5v.5h.5zm0 12.73l.245.436.255-.143v-.293h-.5zm37.893 39.486v.5h.5v-.5h-.5zm-43.19 0h-.5v.5h.5v-.5zm31.31-23.935l.364.344-.363-.344zM28.91 39.98l-.363-.344.363.344zm-2.407 0l.363-.344-.363.344zm-6.81-7.203l-.363.344.363-.344zm2.408-2.546l.363-.344-.363.344zm5.606 5.93l-.364.343a.5.5 0 0 0 .727 0l-.363-.344zm9.01-9.531l-.363-.344.363.344zM29.165 4.932l28.929 16.205.489-.873L29.653 4.06l-.488.873zm-7.457 4.45l7.946-4.45-.489-.873L21.22 8.51l.488.873zm.256-.436V.895h-1v8.051h1zm-.5-8.551h-8.353v1h8.353v-1zM.724 21.137l12.632-7.076-.489-.872-12.63 7.075.488.873zM12.612.895v12.73h1V.895h-1zM51.004 52.61H7.814v1h43.19v-1zm-42.69.5V23.222h-1v29.89h1zm42.19-29.889v29.89h1V23.22h-1zM39.488 29.52a2.375 2.375 0 0 0 0-3.234l-.727.688c.483.51.483 1.348 0 1.859l.727.687zM29.274 40.323L39.488 29.52l-.727-.687-10.214 10.803.727.687zm-3.134 0a2.137 2.137 0 0 0 3.134 0l-.727-.687a1.138 1.138 0 0 1-1.68 0l-.727.687zm-6.81-7.202l6.81 7.202.726-.687-6.81-7.202-.726.687zm0-3.234a2.375 2.375 0 0 0 0 3.234l.727-.687a1.375 1.375 0 0 1 0-1.86l-.727-.687zm3.134 0a2.137 2.137 0 0 0-3.134 0l.727.688a1.138 1.138 0 0 1 1.68 0l.727-.688zm5.606 5.93l-5.606-5.93-.727.688 5.606 5.929.727-.687zm8.284-9.53l-9.01 9.53.726.687 9.01-9.53-.726-.688zm3.134 0a2.137 2.137 0 0 0-3.134 0l.727.687a1.138 1.138 0 0 1 1.68 0l.727-.688z"/></svg>