<svg xmlns="http://www.w3.org/2000/svg" fill="none" viewBox="0 0 65 54"><path fill="#fff" d="M47.998 35.249l.35.356-.35-.356zM28.792 16.326l-.35-.356.35.356zm17.498 0l-.35-.356.35.356zm8.853-8.705l.35.357-.35-.357zm-7.145 10.38l-.35-.356.35.357zm8.84-8.692l.35.357-.35-.357zm1.89-.381l-.182.465.183-.465zm4.152 1.634l.184-.465-.184.465zm.379-.076l-.35-.357.35.357zm.236-.233l.35.357-.35-.357zm0-.488l-.35.357.35-.357zM54.577.995l.35-.356-.35.357zm.947 4.75l.462-.194-.462.194zM53.782 1.59l-.461.193.461-.193zm.299-.594l.35.356-.35-.356zm-.223.218l-.35-.356.35.356zM44.7 16.326l-.35.357.35-.357zm3.298 3.243l.35-.356-.35.356zm-.545 6.646l.494-.075a.5.5 0 0 0-.9-.217l.406.292zM30.3 47.86l-.065-.496.065.496zm0-12.909l-.2-.458.2.458zm-10.264 9.698l.043.498 1.12-.096-.822-.768-.34.366zM9.202 41.793l-.498-.049.498.05zm12.554-2.471l-.257.429.948.567-.199-1.086-.492.09zm-5.047-6.198l-.37-.336.37.336zm22.743 11.23l8.896-8.749-.7-.713-8.897 8.748.701.713zM28.442 15.97l-8.916 8.766.702.713 8.914-8.766-.7-.713zm18.199.713l8.853-8.705-.701-.713-8.853 8.705.701.713zm1.707 1.675l8.84-8.692-.701-.713-8.84 8.692.701.713zm10.198-8.965l4.151 1.634.367-.93-4.152-1.635-.366.93zm5.063 1.449l.237-.232-.701-.714-.237.233.701.713zm.237-1.433L54.927.639l-.7.713 8.918 8.77.7-.713zm-7.86-3.858l-1.743-4.155-.922.387 1.742 4.155.922-.387zM53.73.64l-.222.219.7.713.223-.219-.7-.713zm.513.757a.16.16 0 0 1-.034.175l-.701-.713a.84.84 0 0 0-.187.925l.922-.387zm.684-.757a.855.855 0 0 0-1.197 0l.701.713a.145.145 0 0 1-.205 0l.701-.713zm8.919 9.97a.84.84 0 0 0 0-1.2l-.701.713a.16.16 0 0 1 0-.226l.7.713zm-1.149.418c.313.123.671.052.912-.185l-.7-.713a.145.145 0 0 1 .155-.032l-.367.93zm-5.509-1.361a1.275 1.275 0 0 1 1.358-.273l.366-.93a2.275 2.275 0 0 0-2.425.49l.701.713zm-1.694-1.688a2.203 2.203 0 0 0 .492-2.427l-.923.387c.19.454.086.976-.27 1.327l.7.713zm-11.145 8.705a1.638 1.638 0 0 0 2.292 0l-.701-.713a.639.639 0 0 1-.89 0l-.7.713zm-15.206 0c4.198-4.128 11.008-4.128 15.206 0l.701-.713c-4.587-4.511-12.021-4.511-16.609 0l.701.713zm19.205 2.53a.596.596 0 0 1 0-.855l-.7-.713a1.596 1.596 0 0 0 0 2.28l.7-.712zm0 16.392a11.457 11.457 0 0 0 0-16.392l-.7.713a10.457 10.457 0 0 1 0 14.966l.7.713zm-1.39-9.315c.107.704-.102 1.71-.597 2.921-.488 1.193-1.226 2.518-2.096 3.83-1.745 2.635-3.973 5.146-5.662 6.392l.594.805c1.817-1.34 4.12-3.956 5.902-6.644.893-1.348 1.668-2.732 2.188-4.005.513-1.255.808-2.47.66-3.448l-.989.149zm-8.355 13.143c-.947.698-1.58 1.531-2.09 2.375-.254.42-.48.846-.697 1.257-.219.414-.428.811-.656 1.194-.453.76-.965 1.431-1.708 1.964-.742.531-1.746.947-3.217 1.14l.13.992c1.601-.21 2.77-.675 3.67-1.32.897-.643 1.494-1.442 1.984-2.264.244-.409.465-.83.681-1.24.218-.412.432-.814.669-1.205.47-.778 1.022-1.494 1.828-2.088l-.594-.805zm8.444-13.51c-2.224 3.088-4.22 4.256-6.746 5.136-2.522.878-5.783 1.514-10.2 3.433l.398.917c4.4-1.912 7.425-2.463 10.13-3.405 2.7-.94 4.873-2.224 7.23-5.496l-.812-.585zM30.1 34.492c-4.588 1.993-6.27 5.618-5.908 8.71.358 3.06 2.762 5.6 6.173 5.153l-.13-.992c-2.735.359-4.74-1.64-5.05-4.278-.306-2.607 1.085-5.839 5.314-7.676l-.399-.917zm-9.723 9.79c-1.981-1.848-4.678-3.398-6.942-4.082-1.125-.34-2.206-.487-3.06-.297-.435.098-.834.288-1.138.607-.308.324-.485.743-.533 1.234l.995.098c.03-.304.13-.504.262-.642.135-.142.338-.255.632-.32.605-.135 1.489-.045 2.552.277 2.11.638 4.674 2.106 6.55 3.856l.682-.73zM8.704 41.744c-.082.828.267 1.512.89 2.029.602.498 1.466.85 2.48 1.088 2.037.48 4.868.554 8.005.285l-.086-.996c-3.091.265-5.802.183-7.689-.262-.947-.223-1.64-.527-2.072-.886-.412-.34-.576-.716-.533-1.16l-.995-.098zm13.544-2.512c-.352-1.924-1.253-3.975-2.285-5.342-.51-.676-1.094-1.239-1.705-1.5a1.736 1.736 0 0 0-1.002-.135c-.35.064-.66.25-.916.533l.739.673c.133-.146.253-.203.358-.222a.744.744 0 0 1 .427.07c.375.16.83.56 1.3 1.184.933 1.234 1.775 3.139 2.1 4.919l.984-.18zm-5.908-6.444c-.44.483-.543 1.076-.395 1.679.141.574.507 1.161.999 1.733.988 1.15 2.614 2.389 4.555 3.551l.514-.858c-1.903-1.139-3.424-2.313-4.31-3.345-.446-.518-.7-.964-.787-1.32-.08-.328-.02-.565.163-.767l-.74-.673zM.152 53.61h63.82v-1H.152v1z"/></svg>