<svg xmlns="http://www.w3.org/2000/svg" fill="none" viewBox="0 0 66 53"><path stroke="#fff" d="M55.561 13.526l-7.228 7.553a4.618 4.618 0 0 1-3.336 1.445H30.522c-.046 0-.09.01-.132.028l-19.545 8.703a.093.093 0 0 0-.054.085c0 1.769 1.56 3.085 3.21 2.71l16.452-3.75h10.132c.011 0 .02.01.02.021-.1 1.906-1.303 3.554-3.033 4.155l-7.823 2.717c-1.381.48-2.024 2.142-1.35 3.494l.026.053c.312.627.968.977 1.635.873l21.613-3.355a6.31 6.31 0 0 0 3.588-1.889l10.193-10.652m-9.11 9.66V46.38H4.38V33.304h7.162M.668 52.036H62.08M15.852 19.343c0 1.464-1.133 2.65-2.53 2.65-1.398 0-2.531-1.186-2.531-2.65s1.133-2.651 2.53-2.651c1.398 0 2.531 1.187 2.531 2.65zM40.485 9.8c0 1.464-1.133 2.65-2.531 2.65-1.398 0-2.53-1.186-2.53-2.65s1.132-2.651 2.53-2.651 2.53 1.187 2.53 2.65zM24.288 5.205c0 2.44-1.888 4.418-4.218 4.418s-4.218-1.978-4.218-4.418c0-2.44 1.889-4.418 4.218-4.418 2.33 0 4.218 1.978 4.218 4.418z"/></svg>