<svg xmlns="http://www.w3.org/2000/svg" fill="none" viewBox="0 0 66 53"><path fill="#fff" d="M30.817 17.2l.195-.46-.195.46zM15.014 28.543l-.497.059.497-.059zM33.053 17.2l.116-.487a.498.498 0 0 0-.232 0l.116.487zm2.236 0l.196.46-.196-.46zm15.803 11.343l.497.059-.497-.06zM7.442 7.887l.083.493-.083-.493zm.872-.859l-.492-.086.492.086zm-6.144 3.82l-.083.494.083-.493zm0-2.072l-.083-.493.083.493zm6.144 3.821l-.492.086.492-.086zm-.872-.858l.083-.493-.083.493zm3.881 6.048l-.492-.086.492.086zm-2.105 0l.493-.086-.493.086zm3.881-6.048l-.083-.493.083.493zm-.872.858l.493.086-.493-.086zm6.144-3.82l-.083.492.083-.493zm0 2.072l.083.493-.083-.493zm-6.144-3.82l.493-.087-.493.086zm.872.858l.084-.493-.084.493zm-1.776-6.049l-.492.086.492-.086zm-2.105 0l.493.086-.493-.086zM31.012 16.74c-5.486-2.334-9.911-1.735-12.835.721-2.903 2.44-4.195 6.605-3.66 11.14l.993-.117c-.508-4.303.734-8.093 3.31-10.257 2.555-2.147 6.553-2.8 11.8-.567l.392-.92zM14.517 28.602c.465 3.939 1.9 8.608 4.021 12.305 2.1 3.659 4.98 6.55 8.402 6.55v-1c-2.84 0-5.463-2.438-7.534-6.047-2.048-3.571-3.445-8.11-3.896-11.926l-.993.118zM26.94 47.458c1.241 0 2.244-.154 3.194-.301.952-.148 1.845-.289 2.919-.289v-1c-1.162 0-2.127.154-3.073.3-.948.148-1.883.29-3.04.29v1zm3.68-29.798c.525.223 1.193.21 1.662.166a7.333 7.333 0 0 0 .88-.138l.004-.001h.002l-.115-.487-.116-.487h-.001a.994.994 0 0 0-.05.012 5.844 5.844 0 0 1-.697.105c-.449.042-.899.028-1.177-.09l-.391.92zm4.865 0c5.248-2.233 9.246-1.58 11.8.567 2.576 2.164 3.819 5.954 3.31 10.257l.994.117c.535-4.535-.757-8.7-3.66-11.14-2.924-2.456-7.35-3.055-12.836-.721l.392.92zm15.11 10.824c-.45 3.816-1.847 8.355-3.895 11.926-2.07 3.61-4.695 6.048-7.535 6.048v1c3.422 0 6.304-2.892 8.402-6.55 2.121-3.698 3.557-8.367 4.022-12.306l-.993-.118zm-11.43 17.974c-1.156 0-2.092-.142-3.04-.29-.945-.146-1.91-.3-3.072-.3v1c1.074 0 1.967.141 2.92.289.949.147 1.952.3 3.192.3v-1zM35.093 16.74c-.278.118-.728.132-1.177.09a6.374 6.374 0 0 1-.746-.116h-.002l-.115.486-.116.486h.003l.004.002a.745.745 0 0 0 .068.015c.045.01.11.022.188.037.158.028.377.063.624.086.469.043 1.137.057 1.66-.166l-.39-.92zm-1.547 1.052c-.127-.78-.165-1.594-.267-2.549-.099-.929-.256-1.93-.62-2.957-.74-2.078-2.306-4.175-5.774-6.066l-.479.878c3.285 1.79 4.664 3.71 5.31 5.524.327.919.474 1.831.57 2.728.092.87.141 1.792.273 2.603l.987-.161zM10.831 1.924l.904 5.19.985-.172-.904-5.19-.985.172zm2.185 6.456l5.272.89.166-.987-5.271-.89-.167.987zm5.272 1.976l-5.272.89.167.986 5.271-.89-.166-.986zm-6.553 2.155l-.904 5.19.985.172.904-5.19-.985-.172zm-2.024 5.19l-.904-5.19-.985.172.904 5.19.985-.172zm-2.186-6.455l-5.271-.89-.167.986 5.272.89.166-.986zM2.254 9.269l5.271-.89-.166-.985-5.272.89.167.985zm6.553-2.155l.904-5.19-.985-.171-.904 5.19.985.17zM7.525 8.38a1.56 1.56 0 0 0 1.282-1.266l-.985-.172a.56.56 0 0 1-.463.452l.166.986zm-5.271 1.976c-.628-.106-.628-.98 0-1.087l-.167-.986c-1.739.294-1.739 2.765 0 3.059l.167-.986zm6.553 2.155a1.56 1.56 0 0 0-1.282-1.265l-.166.986a.56.56 0 0 1 .463.45l.985-.17zm2.024 5.19c-.107.613-1.013.613-1.12 0l-.985.172c.299 1.717 2.79 1.717 3.09 0l-.985-.172zm2.185-6.455a1.56 1.56 0 0 0-1.281 1.265l.985.172a.56.56 0 0 1 .463-.451l-.167-.986zm5.272-1.977c.628.106.628.98 0 1.087l.166.986c1.74-.294 1.74-2.765 0-3.059l-.166.986zm-6.553-2.155a1.56 1.56 0 0 0 1.281 1.266l.167-.986a.56.56 0 0 1-.463-.452l-.985.172zm.081-5.361c-.3-1.717-2.791-1.717-3.09 0l.985.171c.107-.612 1.013-.612 1.12 0l.985-.171zM53.94 6.659v2.317h1V6.659h-1zm-.676 3.033H50.85v1h2.413v-1zm2.353 1h2.354v-1h-2.354v1zm-1.676.6v2.375h1v-2.374h-1zM4.105 33.291v2.317h1V33.29h-1zm-.677 3.033H1.016v1h2.412v-1zm2.354 1h2.353v-1H5.782v1zm-1.677.6V40.3h1v-2.374h-1zm-3.09 14.79h64.787v-1H1.016v1z"/></svg>