<svg xmlns="http://www.w3.org/2000/svg" fill="none" viewBox="0 0 38 38"><path fill="#fff" fill-rule="evenodd" d="M18.882.293c-5.113 0-5.753.02-7.76.113-2.004.092-3.373.41-4.57.875a9.227 9.227 0 0 0-3.334 2.171 9.234 9.234 0 0 0-2.171 3.334C.58 7.983.263 9.352.172 11.357c-.091 2.007-.113 2.646-.113 7.76 0 5.113.02 5.752.113 7.76.092 2.004.41 3.373.875 4.57a9.227 9.227 0 0 0 2.17 3.334 9.235 9.235 0 0 0 3.335 2.17c1.197.466 2.566.785 4.57.876 2.007.091 2.647.113 7.76.113 5.113 0 5.753-.02 7.76-.113 2.004-.092 3.373-.41 4.57-.875a9.228 9.228 0 0 0 3.334-2.171 9.233 9.233 0 0 0 2.171-3.334c.466-1.197.785-2.566.876-4.57.09-2.008.113-2.648.113-7.76 0-5.113-.021-5.753-.113-7.761-.092-2.004-.41-3.373-.876-4.57a9.227 9.227 0 0 0-2.17-3.334 9.234 9.234 0 0 0-3.334-2.17C30.015.815 28.646.496 26.642.405c-2.007-.091-2.646-.113-7.76-.113zm0 3.391c5.026 0 5.622.02 7.607.11 1.835.084 2.832.39 3.495.649.878.34 1.506.75 2.164 1.407a5.825 5.825 0 0 1 1.408 2.165c.258.663.565 1.66.649 3.495.09 1.985.11 2.58.11 7.606s-.02 5.622-.11 7.607c-.084 1.836-.39 2.832-.649 3.495a5.83 5.83 0 0 1-1.407 2.165 5.826 5.826 0 0 1-2.165 1.407c-.663.259-1.66.565-3.495.649-1.985.09-2.58.11-7.607.11s-5.622-.02-7.607-.11c-1.835-.084-2.832-.39-3.495-.648a5.83 5.83 0 0 1-2.164-1.408 5.832 5.832 0 0 1-1.408-2.165c-.258-.663-.565-1.66-.648-3.495-.09-1.985-.11-2.58-.11-7.607 0-5.025.02-5.621.11-7.606.083-1.836.39-2.832.648-3.495A5.84 5.84 0 0 1 5.616 5.85 5.826 5.826 0 0 1 7.78 4.443c.663-.259 1.66-.565 3.495-.649 1.985-.09 2.581-.11 7.607-.11z" clip-rule="evenodd"/><path fill="#fff" fill-rule="evenodd" d="M18.882 25.397a6.281 6.281 0 1 1 0-12.562 6.281 6.281 0 0 1 0 12.562zm0-15.956a9.675 9.675 0 1 0 0 19.35 9.675 9.675 0 0 0 0-19.35zm12.49-.175a2.287 2.287 0 1 1-4.574 0 2.287 2.287 0 0 1 4.575 0z" clip-rule="evenodd"/></svg>