<svg xmlns="http://www.w3.org/2000/svg" fill="none" viewBox="0 0 274 57"><path fill="#004F64" fill-rule="evenodd" d="M250.815 22.967h10.89V18.99h-10.89v-9.5h9.792v2.21h3.952V7.545a1.974 1.974 0 0 0-1.976-1.988h-18.837v3.976h3.117V34.5c0 1.105.879 1.989 1.976 1.989h15.413a1.974 1.974 0 0 0 1.976-1.989v-4.197h-3.952v2.21h-11.461v-9.545zm-59.542 14.14V33.13c6.674 0 12.075-5.435 12.075-12.152 0-6.716-5.401-12.15-12.075-12.15V4.85c8.826 0 15.983 7.202 15.983 16.083 0 8.97-7.157 16.172-15.983 16.172zm25.6-25.32l1.537 2.52 12.514 20.016 1.317 2.12h4.347V9.49h3.382V5.513H234.612a1.974 1.974 0 0 0-1.975 1.989v22.756c-.088-.133-.132-.266-.22-.398-.439-.751-.878-1.458-1.317-2.21L218.146 6.928l-.878-1.414H212.921v26.954h-3.381v3.977H214.897a1.974 1.974 0 0 0 1.976-1.989V11.788zm-25.6-6.892v3.977c-6.674 0-12.075 5.434-12.075 12.15 0 6.717 5.401 12.152 12.075 12.152v3.977c-8.606 0-15.632-6.85-15.983-15.466v-1.28c.351-8.661 7.333-15.51 15.983-15.51zM175.29 9.49V5.513 9.49zm0-3.932v3.976h-9.704v22.977h3.161v3.977H158.472V32.51h3.162V9.534h-9.002V5.558h22.658zm0 14.802v1.326-1.326zm-61.519 2.342v-3.977h3.557c2.547 0 4.611-2.077 4.611-4.64 0-2.562-2.064-4.64-4.611-4.64h-3.557V5.47h3.557c4.699 0 8.519 3.889 8.519 8.572 0 3.226-1.801 6.054-4.391 7.512 1.624 1.193 2.986 2.828 3.732 4.728.439 1.105.703 2.297.659 3.49v6.584h-1.976a1.974 1.974 0 0 1-1.976-1.988v-5.788c0-.928-.307-1.856-.834-2.608-.835-1.28-2.284-2.341-3.865-3.27h-3.425zm0-17.144v3.976h-8.167v9.279h8.167v3.977h-8.167v13.742h-1.976a1.974 1.974 0 0 1-1.976-1.988V9.49h-3.117V5.513h15.236v.045zm-92.606 0h-3.689V32.51h-3.425v3.977H19.408a1.974 1.974 0 0 0 1.976-1.989V11.788l1.537 2.518 12.515 20.017 1.317 2.12H41.1V9.49h3.381V5.513H39.124a1.974 1.974 0 0 0-1.976 1.989v22.756c-.088-.133-.132-.266-.22-.398-.439-.751-.878-1.458-1.317-2.21L22.614 6.928l-.878-1.414h-.571v.045zM7.113 9.49v22.977h3.162v3.977H0v-3.977h3.162V9.49H0V5.513H10.275V9.49H7.113zm54.098 0v22.977h3.161v3.977H54.097v-3.977h3.162V9.49h-9.002V5.513H70.213V9.49H61.21zm15.895 0v24.965c0 1.105.879 1.989 1.976 1.989h15.413a1.974 1.974 0 0 0 1.976-1.989v-4.197h-3.952v2.209h-11.46v-9.5h10.89V18.99h-10.89v-9.5h9.791v2.21h3.952V7.545a1.974 1.974 0 0 0-1.976-1.988H73.99v3.976h3.117V9.49z" clip-rule="evenodd"/><path fill="#CF3620" fill-rule="evenodd" d="M142.226 22.967h.088c2.59 0 4.742 2.12 4.742 4.772 0 2.607-2.108 4.772-4.742 4.772H125.847v3.977h16.467c4.742 0 8.65-3.933 8.65-8.705s-3.908-8.705-8.65-8.705H140.864v.045-.045h-2.546c-2.591 0-4.743-2.12-4.743-4.771 0-2.607 2.108-4.773 4.743-4.773h14.49V5.558h-14.49c-4.743 0-8.651 3.932-8.651 8.704s3.908 8.705 8.651 8.705H142.226z" clip-rule="evenodd"/><path fill="#004F64" d="M160.887 50.759v-1.237h2.327v-3.668h-2.327v-1.237h3.601v9.721h-1.274v-3.535h-2.327v-.044zm0-6.186v1.237h-.571c-.175 0-.307.044-.483.089-.175.044-.307.132-.439.22-.132.089-.263.177-.351.31-.176.176-.307.353-.351.574-.088.221-.132.442-.132.707 0 .221.044.398.088.619.088.176.175.398.307.53.132.133.264.265.395.353.132.089.308.177.483.221.176.045.352.089.483.089h.571v1.237h-.439l-1.712 3.535h-1.493l1.844-3.844c-.22-.089-.439-.221-.659-.354a3.023 3.023 0 0 1-.527-.53c-.131-.177-.263-.354-.351-.574a3.9 3.9 0 0 1-.22-.663c-.043-.221-.087-.442-.087-.707 0-.354.087-.707.219-1.06.132-.354.308-.663.571-.929.176-.22.351-.397.615-.574.219-.177.483-.265.746-.353.176-.045.308-.089.483-.133.176-.044.352-.044.527-.044h.483v.044zm-29.508 7.953V51.29h1.801l-1.801-5.346v-1.37h.923l3.161 9.72h-1.361l-.571-1.767h-2.152zm14.93-7.953h-1.317l-3.513 7.556-3.557-7.556h-1.317v9.72h1.317v-6.848l3.206 6.849h.614l3.206-6.893v6.893h1.317v-9.721h.044zm8.387 0v4.905h-4.962v-4.905h-1.317v9.72h1.317V50.76h4.962v3.535h1.317v-9.721h-1.317zm-23.317 0v1.37l-1.756 5.39h1.8v1.238h-2.195l-.571 1.767h-1.361l3.205-9.72h.878v-.045zm-27.97 6.186v-1.237h.527c.175 0 .307-.044.483-.089.175-.044.307-.132.483-.22.131-.089.263-.221.395-.354.132-.177.219-.354.307-.53.088-.177.088-.398.088-.619 0-.22-.044-.486-.132-.707-.088-.22-.219-.398-.351-.574-.088-.133-.22-.221-.351-.31a2.063 2.063 0 0 0-.439-.22c-.176-.045-.308-.089-.483-.089h-.527v-1.237h.57c.176 0 .352 0 .483.044.176.044.352.089.484.133.263.088.526.22.746.353.22.177.439.354.615.575.219.265.439.574.571.928.131.353.175.706.219 1.06 0 .22 0 .442-.088.707-.044.22-.131.442-.219.663-.088.22-.22.397-.352.574a2.955 2.955 0 0 1-1.492 1.017 3.332 3.332 0 0 1-.923.132h-.614zm11.197-4.86v-1.326h-6.104v9.72h6.104v-1.325h-4.786v-2.872h3.995v-1.281h-3.995v-2.916h4.786zm8.167 3.888l2.854 4.507h1.581l-3.293-5.081 3.03-4.64h-1.537l-2.591 4.154h-2.02v-4.154h-1.317v9.72h1.317v-4.506h1.976zm-19.364-5.214v1.237h-2.328v3.668h2.328v1.237h-2.328v3.535h-1.317v-9.721h3.645v.044zM70.3 54.293v-1.236h.44c.219 0 .395 0 .57-.044a.882.882 0 0 0 .483-.133c.132-.088.308-.177.44-.31.131-.132.263-.309.307-.485.088-.177.131-.398.131-.575 0-.177-.043-.398-.087-.574-.044-.177-.176-.354-.264-.486a1.342 1.342 0 0 0-.351-.354c-.132-.088-.264-.176-.44-.22a1.551 1.551 0 0 0-.438-.09h-.79V48.55h.526c.132 0 .264-.044.395-.089.132-.044.264-.088.396-.176.131-.089.22-.177.307-.31.088-.132.176-.265.22-.397.044-.133.087-.31.087-.442 0-.177-.043-.31-.088-.486-.087-.133-.131-.31-.263-.398a3.072 3.072 0 0 0-.439-.353c-.176-.089-.351-.089-.57-.089h-.528v-1.237h.615c.132 0 .263 0 .395.044.132 0 .22.044.308.089.263.088.482.176.746.353.22.133.44.354.615.574.175.221.307.442.395.707.088.265.132.53.176.84 0 .31 0 .574-.132.84-.088.265-.22.53-.44.75-.043.045-.087.133-.131.177-.044.045-.088.133-.132.177.132.088.264.177.395.31.132.132.22.265.352.397.175.265.307.53.439.84.088.309.132.618.132.928 0 .309-.044.618-.176.883-.088.31-.263.575-.44.796-.219.22-.438.441-.658.618-.263.177-.527.31-.79.354a2.575 2.575 0 0 1-.615.088c-.22 0-.395.044-.615.044H70.3v-.088zm17.828-9.72H86.81l-3.513 7.556-3.557-7.556h-1.317v9.72h1.317v-6.848l3.206 6.849h.614l3.206-6.893v6.893h1.317v-9.721h.044zm8.387 0l-4.918 7.335v-7.335H90.28v9.72h1.185l4.874-7.29v7.335h1.317v-9.72h-1.141v-.045zm-26.215 0v1.237h-1.932v2.784H70.3v1.237h-1.932v3.226H70.3v1.237h-3.249v-9.721h3.25zm-19.364 6.186v-1.237h.527c.175 0 .307-.044.483-.089.175-.044.307-.132.483-.22a2.84 2.84 0 0 0 .395-.354c.132-.177.22-.354.307-.53.088-.177.088-.398.088-.619 0-.22-.044-.486-.132-.707-.087-.22-.219-.398-.35-.574-.089-.133-.22-.221-.352-.31a2.038 2.038 0 0 0-.44-.22c-.175-.045-.306-.089-.482-.089h-.527v-1.237h.57c.176 0 .352 0 .484.044.175.044.351.089.483.133.263.088.527.22.746.353.22.177.44.354.615.575.22.265.44.574.57.928.132.353.22.706.22 1.06 0 .22 0 .442-.088.707-.043.22-.131.442-.219.663-.088.22-.22.397-.351.574a2.961 2.961 0 0 1-1.493 1.017 3.326 3.326 0 0 1-.922.132h-.615zm11.987-6.186h-7.816v1.326h3.25v8.44h1.317v-8.44h3.25v-1.326zm-55.15 1.37a3.669 3.669 0 0 0-.967-.884 4.847 4.847 0 0 0-1.185-.53 4.505 4.505 0 0 0-1.318-.177c-.439 0-.922.044-1.317.177-.44.132-.834.31-1.186.53-.351.221-.702.53-.966.884-.22.265-.395.574-.527.84-.131.309-.263.618-.307.927l1.361.221c.044-.22.132-.442.22-.618.088-.221.22-.398.351-.575.176-.265.395-.442.659-.618.263-.177.527-.31.834-.398.307-.089.615-.133.922-.133.307 0 .615.044.922.133.308.088.571.22.835.398.263.176.483.353.658.618.22.31.395.619.483.972.132.354.176.707.22 1.105h-3.47v1.281h3.47c-.044.398-.088.751-.22 1.105-.132.353-.263.663-.483.972-.175.265-.395.442-.658.619-.264.176-.527.309-.835.397a3.326 3.326 0 0 1-.922.133c-.307 0-.615-.044-.922-.133a2.965 2.965 0 0 1-1.493-1.016 3.301 3.301 0 0 1-.307-.53 2.226 2.226 0 0 1-.22-.575l-1.273.354c.088.265.175.53.307.795s.264.486.483.707c.264.354.615.663.966.884.351.22.747.398 1.186.53.439.133.878.177 1.317.177.483 0 .922-.044 1.317-.177.44-.133.835-.31 1.186-.53.351-.221.659-.53.966-.884.263-.353.483-.707.659-1.06.175-.398.263-.796.35-1.193.089-.398.133-.84.089-1.238 0-.441-.044-.84-.132-1.237-.088-.397-.176-.795-.351-1.193-.22-.353-.44-.707-.703-1.06zm43.163-1.37v1.237h-2.327v3.668h2.327v1.237h-2.327v3.535H47.29v-9.721h3.645v.044zm-37.104 5.214l2.854 4.507h1.58l-3.293-5.081 3.03-4.64h-1.58l-2.591 4.154h-2.02v-4.154h-1.317v9.72h1.317v-4.506h2.02zm12.47 1.281a3.077 3.077 0 0 1-.22.575 3.302 3.302 0 0 1-.307.53c-.175.265-.395.442-.658.619-.264.176-.527.309-.835.397a3.326 3.326 0 0 1-.922.133c-.307 0-.614-.044-.922-.133a2.908 2.908 0 0 1-.834-.397c-.264-.177-.483-.354-.659-.619-.175-.265-.351-.53-.439-.795-.088-.31-.176-.619-.22-.928a7.271 7.271 0 0 1-.087-.972c0-.31.044-.663.087-.973.044-.309.132-.618.22-.927.088-.31.264-.575.44-.796.175-.265.394-.442.658-.618.263-.177.527-.31.834-.398.308-.088.615-.133.922-.133.308 0 .615.045.922.133.308.088.571.22.835.398.263.176.483.353.658.618.132.177.22.354.308.575.088.22.175.397.22.618l1.36-.22c-.087-.31-.22-.62-.35-.928a3.368 3.368 0 0 0-.528-.84c-.263-.354-.614-.619-.966-.884a4.843 4.843 0 0 0-1.185-.53 4.505 4.505 0 0 0-1.318-.177c-.439 0-.922.044-1.317.177a4.84 4.84 0 0 0-1.185.53c-.352.221-.703.53-.967.884-.263.31-.483.663-.614 1.06-.176.398-.264.752-.352 1.193-.087.398-.087.84-.131 1.238 0 .397.044.84.087 1.237.088.397.176.795.352 1.193.175.398.395.751.614 1.06.264.354.615.619.966.884.352.221.747.398 1.186.53.44.133.878.177 1.317.177.44 0 .879-.044 1.318-.177.439-.132.834-.309 1.185-.53.352-.22.703-.53.966-.884.176-.22.352-.486.483-.707.132-.265.22-.53.308-.795l-1.23-.398zm10.934-6.495h-7.948v9.72h1.317v-8.439h5.314v8.44h1.317v-9.721zm8.211 1.326v-1.326h-6.103v9.72h6.103v-1.325h-4.786v-2.872h3.996v-1.281H40.66v-2.916h4.786z"/></svg>