<svg width="274" height="57" viewBox="0 0 274 57" fill="none" xmlns="http://www.w3.org/2000/svg">
<path fill-rule="evenodd" clip-rule="evenodd" d="M250.815 22.9669H261.705V18.9901H250.815V9.49012H260.607V11.6994H264.559V9.49012V9.00407V7.54594C264.559 6.44128 263.681 5.55756 262.583 5.55756H250.815H246.863H243.746V9.53431H246.863V34.4994C246.863 35.6041 247.742 36.4878 248.839 36.4878H250.025H250.815H264.252C265.35 36.4878 266.228 35.6041 266.228 34.4994V32.2901V31.7599V30.3018H262.276V32.5111H250.815V22.9669ZM191.273 37.1064V33.1297C197.947 33.1297 203.348 27.6948 203.348 20.9785C203.348 14.2622 197.947 8.82733 191.273 8.82733V4.85059C200.099 4.85059 207.256 12.0529 207.256 20.9343C207.256 29.9041 200.099 37.1064 191.273 37.1064ZM216.873 11.7878L218.41 14.3064L230.924 34.3227L232.241 36.4436H232.637H232.944H236.588V9.49012H239.97V5.51338H236.588H235.974H234.612C233.515 5.51338 232.637 6.3971 232.637 7.50175V30.2576C232.549 30.125 232.505 29.9924 232.417 29.8599C231.978 29.1087 231.539 28.4018 231.1 27.6506L218.146 6.92733L217.268 5.51338H216.873H216.653H213.843H212.921V32.4669H209.54V36.4436H212.921H213.536H214.897C215.995 36.4436 216.873 35.5599 216.873 34.4552V11.7878ZM191.273 4.89477V8.87152C184.599 8.87152 179.198 14.3064 179.198 21.0227C179.198 27.739 184.599 33.1738 191.273 33.1738V37.1506C182.667 37.1506 175.641 30.3018 175.29 21.6855V20.4041C175.641 11.7436 182.623 4.89477 191.273 4.89477ZM175.29 9.49012V5.51338V9.49012ZM175.29 5.55756V9.53431H165.586V32.5111H168.747V36.4878H165.586H161.634H158.472V32.5111H161.634V9.53431H152.632V5.55756H161.634H165.586H175.29ZM175.29 20.3599C175.29 20.5808 175.29 20.8018 175.29 21.0227C175.29 21.2436 175.29 21.4645 175.29 21.6855V20.3599ZM113.771 22.7018V18.725H116.538H117.328C119.875 18.725 121.939 16.6483 121.939 14.0855C121.939 11.5227 119.875 9.44594 117.328 9.44594H114.123H113.771V5.46919H117.328C122.027 5.46919 125.847 9.35756 125.847 14.0413C125.847 17.2669 124.046 20.0948 121.456 21.5529C123.08 22.7459 124.442 24.3808 125.188 26.2808C125.627 27.3855 125.891 28.5785 125.847 29.7715V36.3552H123.871C122.773 36.3552 121.895 35.4715 121.895 34.3669V28.5785C121.895 27.6506 121.588 26.7227 121.061 25.9715C120.226 24.6901 118.777 23.6297 117.196 22.7018H116.494H113.771ZM113.771 5.55756V9.53431H105.604V14.1297V14.218V18.8134H113.771V22.7901H110.215H105.604V36.532H103.628C102.53 36.532 101.652 35.6483 101.652 34.5436V14.218V9.49012H98.5346V5.51338H101.652H105.604H110.215H112.147H113.771V5.55756ZM21.1647 5.55756H18.3984H17.4763V32.5111H14.0513V36.4878H17.4324H18.0471H19.4083C20.5061 36.4878 21.3843 35.6041 21.3843 34.4994V11.7878L22.9212 14.3064L35.4356 34.3227L36.7529 36.4436H37.1481H37.4554H41.1V9.49012H44.4811V5.51338H41.1H40.4853H39.124C38.0263 5.51338 37.1481 6.3971 37.1481 7.50175V30.2576C37.0603 30.125 37.0163 29.9924 36.9285 29.8599C36.4894 29.1087 36.0503 28.4018 35.6112 27.6506L22.6138 6.92733L21.7356 5.51338H21.3404H21.1647V5.55756ZM7.11346 9.49012V32.4669H10.275V36.4436H7.11346H3.16154H0V32.4669H3.16154V9.49012H0V5.51338H3.16154H7.11346H10.275V9.49012H7.11346ZM61.2109 9.49012V32.4669H64.3724V36.4436H61.2109H57.259H54.0974V32.4669H57.259V9.49012H48.2574V5.51338H57.259H61.2109H70.2125V9.49012H61.2109ZM77.1064 9.49012V34.4552C77.1064 35.5599 77.9846 36.4436 79.0824 36.4436H80.268H81.0583H94.4949C95.5926 36.4436 96.4708 35.5599 96.4708 34.4552V32.2459V31.7157V30.2576H92.5189V32.4669H81.0583V22.9669H91.9481V18.9901H81.0583V9.49012H90.8503V11.6994H94.8022V9.49012V9.00407V7.54594C94.8022 6.44128 93.924 5.55756 92.8263 5.55756H81.0583H77.1064H73.9888V9.53431H77.1064V9.49012Z" fill="#004F64"/>
<path fill-rule="evenodd" clip-rule="evenodd" d="M142.226 22.9669H142.314C144.904 22.9669 147.056 25.0879 147.056 27.739C147.056 30.346 144.948 32.5111 142.314 32.5111H140.557H125.847V36.4879H140.469H140.557H142.314C147.056 36.4879 150.964 32.5553 150.964 27.7832C150.964 23.0111 147.056 19.0785 142.314 19.0785H142.226H140.864V19.1227V19.0785H138.318C135.727 19.0785 133.575 16.9576 133.575 14.3065C133.575 11.6995 135.683 9.53436 138.318 9.53436H140.074H152.808V5.55762H140.162H140.074H138.318C133.575 5.55762 129.667 9.49018 129.667 14.2623C129.667 19.0344 133.575 22.9669 138.318 22.9669H140.821H142.226Z" fill="#CF3620"/>
<path d="M160.887 50.759V49.5218H163.214V45.8544H160.887V44.6172H164.488V54.3381H163.214V50.8032H160.887V50.759ZM160.887 44.573V45.8102H160.316C160.141 45.8102 160.009 45.8544 159.833 45.8986C159.658 45.9427 159.526 46.0311 159.394 46.1195C159.262 46.2079 159.131 46.2962 159.043 46.4288C158.867 46.6055 158.736 46.7823 158.692 47.0032C158.604 47.2241 158.56 47.4451 158.56 47.7102C158.56 47.9311 158.604 48.1079 158.648 48.3288C158.736 48.5055 158.823 48.7265 158.955 48.859C159.087 48.9916 159.219 49.1241 159.35 49.2125C159.482 49.3009 159.658 49.3893 159.833 49.4334C160.009 49.4776 160.185 49.5218 160.316 49.5218H160.887V50.759H160.448L158.736 54.2939H157.243L159.087 50.4497C158.867 50.3614 158.648 50.2288 158.428 50.0962C158.253 49.9637 158.077 49.7869 157.901 49.566C157.77 49.3893 157.638 49.2125 157.55 48.9916C157.462 48.7707 157.374 48.5497 157.33 48.3288C157.287 48.1079 157.243 47.8869 157.243 47.6218C157.243 47.2683 157.33 46.9148 157.462 46.5614C157.594 46.2079 157.77 45.8986 158.033 45.6334C158.209 45.4125 158.384 45.2358 158.648 45.059C158.867 44.8823 159.131 44.7939 159.394 44.7055C159.57 44.6614 159.702 44.6172 159.877 44.573C160.053 44.5288 160.229 44.5288 160.404 44.5288H160.887V44.573ZM131.379 52.5265V51.2893H133.18L131.379 45.9427V44.573H132.302L135.463 54.2939H134.102L133.531 52.5265H131.379ZM146.309 44.573H144.992L141.479 52.1288L137.922 44.573H136.605V54.2939H137.922V47.4451L141.128 54.2939H141.742L144.948 47.4009V54.2939H146.265V44.573H146.309ZM154.696 44.573V49.4776H149.734V44.573H148.417V54.2939H149.734V50.759H154.696V54.2939H156.013V44.573H154.696ZM131.379 44.573V45.9427L129.623 51.3334H131.423V52.5707H129.228L128.657 54.3381H127.296L130.501 44.6172H131.379V44.573ZM103.409 50.759V49.5218H103.936C104.111 49.5218 104.243 49.4776 104.419 49.4334C104.594 49.3893 104.726 49.3009 104.902 49.2125C105.033 49.1241 105.165 48.9916 105.297 48.859C105.429 48.6823 105.516 48.5055 105.604 48.3288C105.692 48.1521 105.692 47.9311 105.692 47.7102C105.692 47.4893 105.648 47.2241 105.56 47.0032C105.472 46.7823 105.341 46.6055 105.209 46.4288C105.121 46.2962 104.989 46.2079 104.858 46.1195C104.726 46.0311 104.55 45.9427 104.419 45.8986C104.243 45.8544 104.111 45.8102 103.936 45.8102H103.409V44.573H103.979C104.155 44.573 104.331 44.573 104.462 44.6172C104.638 44.6614 104.814 44.7055 104.946 44.7497C105.209 44.8381 105.472 44.9707 105.692 45.1032C105.912 45.28 106.131 45.4567 106.307 45.6776C106.526 45.9427 106.746 46.252 106.878 46.6055C107.009 46.959 107.053 47.3125 107.097 47.666C107.097 47.8869 107.097 48.1079 107.009 48.373C106.965 48.5939 106.878 48.8148 106.79 49.0358C106.702 49.2567 106.57 49.4334 106.438 49.6102C106.263 49.8311 106.043 50.0521 105.78 50.2288C105.516 50.4055 105.253 50.5381 104.946 50.6265C104.638 50.7148 104.331 50.759 104.023 50.759H103.409ZM114.606 45.8986V44.573H108.502V54.2939H114.606V52.9683H109.82V50.0962H113.815V48.8148H109.82V45.8986H114.606ZM122.773 49.7869L125.627 54.2939H127.208L123.915 49.2125L126.945 44.573H125.408L122.817 48.7265H120.797V44.573H119.48V54.2939H120.797V49.7869H122.773ZM103.409 44.573V45.8102H101.081V49.4776H103.409V50.7148H101.081V54.2497H99.7641V44.5288H103.409V44.573ZM70.3003 54.2939V53.0567H70.7394C70.959 53.0567 71.1346 53.0567 71.3102 53.0125C71.4859 53.0125 71.6615 52.9683 71.7933 52.88C71.925 52.7916 72.1006 52.7032 72.2324 52.5707C72.3641 52.4381 72.4958 52.2614 72.5397 52.0846C72.6276 51.9079 72.6715 51.6869 72.6715 51.5102C72.6715 51.3334 72.6276 51.1125 72.5836 50.9358C72.5397 50.759 72.408 50.5823 72.3202 50.4497C72.2324 50.3172 72.1006 50.1846 71.9689 50.0962C71.8372 50.0079 71.7054 49.9195 71.5298 49.8753C71.3981 49.8311 71.2224 49.7869 71.0907 49.7869H70.3003V48.5497H70.8272C70.959 48.5497 71.0907 48.5055 71.2224 48.4614C71.3542 48.4172 71.4859 48.373 71.6176 48.2846C71.7494 48.1962 71.8372 48.1079 71.925 47.9753C72.0128 47.8427 72.1006 47.7102 72.1445 47.5776C72.1885 47.4451 72.2324 47.2683 72.2324 47.1358C72.2324 46.959 72.1885 46.8265 72.1445 46.6497C72.0567 46.5172 72.0128 46.3404 71.8811 46.2521C71.7494 46.1195 71.5737 45.9869 71.442 45.8986C71.2663 45.8102 71.0907 45.8102 70.8711 45.8102H70.3442V44.573H70.6077C70.7394 44.573 70.8272 44.573 70.959 44.573C71.0907 44.573 71.2224 44.573 71.3542 44.6172C71.4859 44.6172 71.5737 44.6614 71.6615 44.7055C71.925 44.7939 72.1445 44.8823 72.408 45.059C72.6276 45.1916 72.8471 45.4125 73.0228 45.6334C73.1984 45.8544 73.3301 46.0753 73.4179 46.3404C73.5058 46.6055 73.5497 46.8707 73.5936 47.18C73.5936 47.4893 73.5936 47.7544 73.4619 48.0195C73.374 48.2846 73.2423 48.5497 73.0228 48.7707C72.9788 48.8148 72.9349 48.9032 72.891 48.9474C72.8471 48.9916 72.8032 49.08 72.7593 49.1241C72.891 49.2125 73.0228 49.3009 73.1545 49.4334C73.2862 49.566 73.374 49.6986 73.5058 49.8311C73.6814 50.0962 73.8131 50.3614 73.9449 50.6707C74.0327 50.98 74.0766 51.2893 74.0766 51.5986C74.0766 51.9079 74.0327 52.2172 73.901 52.4823C73.8131 52.7916 73.6375 53.0567 73.4619 53.2776C73.2423 53.4986 73.0228 53.7195 72.8032 53.8962C72.5397 54.073 72.2763 54.2055 72.0128 54.2497C71.8372 54.2939 71.6176 54.3381 71.3981 54.3381C71.1785 54.3381 71.0029 54.3823 70.7833 54.3823H70.3003V54.2939ZM88.1279 44.573H86.8106L83.2977 52.1288L79.741 44.573H78.4237V54.2939H79.741V47.4451L82.9465 54.2939H83.5612L86.7667 47.4009V54.2939H88.084V44.573H88.1279ZM96.5147 44.573L91.5968 51.9079V44.573H90.2795V54.2939H91.4651L96.3391 47.0032V54.3381H97.6564V44.6172H96.5147V44.573ZM70.3003 44.573V45.8102H68.3683V48.5939H70.3003V49.8311H68.3683V53.0567H70.3003V54.2939H67.051V44.573H70.3003ZM50.9359 50.759V49.5218H51.4628C51.6385 49.5218 51.7702 49.4776 51.9458 49.4334C52.1215 49.3893 52.2532 49.3009 52.4288 49.2125C52.5606 49.1241 52.6923 48.9916 52.824 48.859C52.9558 48.6823 53.0436 48.5055 53.1314 48.3288C53.2192 48.1521 53.2192 47.9311 53.2192 47.7102C53.2192 47.4893 53.1753 47.2241 53.0875 47.0032C52.9997 46.7823 52.868 46.6055 52.7362 46.4288C52.6484 46.2962 52.5167 46.2079 52.3849 46.1195C52.2532 46.0311 52.0776 45.9427 51.9458 45.8986C51.7702 45.8544 51.6385 45.8102 51.4628 45.8102H50.9359V44.573H51.5067C51.6824 44.573 51.858 44.573 51.9897 44.6172C52.1654 44.6614 52.341 44.7055 52.4728 44.7497C52.7362 44.8381 52.9997 44.9707 53.2192 45.1032C53.4388 45.28 53.6583 45.4567 53.834 45.6776C54.0535 45.9427 54.2731 46.252 54.4048 46.6055C54.5365 46.959 54.6244 47.3125 54.6244 47.666C54.6244 47.8869 54.6244 48.1079 54.5365 48.373C54.4926 48.5939 54.4048 48.8148 54.317 49.0358C54.2292 49.2567 54.0974 49.4334 53.9657 49.6102C53.7901 49.8311 53.5705 50.0521 53.307 50.2288C53.0436 50.4055 52.7801 50.5381 52.4728 50.6265C52.1654 50.7148 51.858 50.759 51.5506 50.759H50.9359ZM62.9234 44.573H55.1074V45.8986H58.3567V54.3381H59.674V45.8986H62.9234V44.573ZM7.77211 45.9427C7.50865 45.5893 7.15737 45.28 6.80609 45.059C6.45481 44.8381 6.05961 44.6614 5.62051 44.5288C5.18141 44.3962 4.7423 44.3521 4.3032 44.3521C3.8641 44.3521 3.38108 44.3962 2.98589 44.5288C2.54679 44.6614 2.1516 44.8381 1.80032 45.059C1.44903 45.28 1.09775 45.5893 0.834292 45.9427C0.614741 46.2079 0.439101 46.5172 0.30737 46.7823C0.17564 47.0916 0.0439103 47.4009 0 47.7102L1.36121 47.9311C1.40512 47.7102 1.49294 47.4893 1.58077 47.3125C1.66859 47.0916 1.80032 46.9148 1.93205 46.7381C2.10769 46.473 2.32724 46.2962 2.5907 46.1195C2.85416 45.9427 3.11762 45.8102 3.42499 45.7218C3.73237 45.6334 4.03974 45.5893 4.34711 45.5893C4.65448 45.5893 4.96186 45.6334 5.26923 45.7218C5.5766 45.8102 5.84006 45.9427 6.10352 46.1195C6.36698 46.2962 6.58654 46.473 6.76218 46.7381C6.98173 47.0474 7.15737 47.3567 7.24519 47.7102C7.37692 48.0637 7.42083 48.4172 7.46474 48.8148H3.99583V50.0962H7.46474C7.42083 50.4939 7.37692 50.8474 7.24519 51.2009C7.11346 51.5544 6.98173 51.8637 6.76218 52.173C6.58654 52.4381 6.36698 52.6148 6.10352 52.7916C5.84006 52.9683 5.5766 53.1009 5.26923 53.1893C4.96186 53.2776 4.65448 53.3218 4.34711 53.3218C4.03974 53.3218 3.73237 53.2776 3.42499 53.1893C3.11762 53.1009 2.85416 52.9683 2.5907 52.7916C2.32724 52.6148 2.10769 52.3939 1.93205 52.173C1.80032 51.9962 1.7125 51.8195 1.62468 51.6427C1.53686 51.466 1.44904 51.2893 1.40513 51.0683L0.131725 51.4218C0.219546 51.6869 0.307372 51.9521 0.439103 52.2172C0.570833 52.4823 0.70256 52.7032 0.922111 52.9241C1.18557 53.2776 1.53685 53.5869 1.88814 53.8079C2.23942 54.0288 2.63462 54.2055 3.07372 54.3381C3.51282 54.4707 3.95192 54.5148 4.39103 54.5148C4.87404 54.5148 5.31314 54.4707 5.70833 54.3381C6.14744 54.2055 6.54263 54.0288 6.89391 53.8079C7.24519 53.5869 7.55256 53.2776 7.85993 52.9241C8.12339 52.5707 8.34295 52.2172 8.51859 51.8637C8.69423 51.466 8.78205 51.0683 8.86987 50.6707C8.95769 50.273 9.0016 49.8311 8.95769 49.4334C8.95769 48.9916 8.91378 48.5939 8.82596 48.1962C8.73814 47.7986 8.65032 47.4009 8.47467 47.0032C8.25512 46.6497 8.03558 46.2962 7.77211 45.9427ZM50.9359 44.573V45.8102H48.6086V49.4776H50.9359V50.7148H48.6086V54.2497H47.2913V44.5288H50.9359V44.573ZM13.8317 49.7869L16.6859 54.2939H18.2667L14.9734 49.2125L18.0032 44.573H16.4224L13.8317 48.7265H11.8119V44.573H10.4945V54.2939H11.8119V49.7869H13.8317ZM26.3022 51.0683C26.2583 51.2451 26.1705 51.466 26.0827 51.6427C25.9949 51.8195 25.907 51.9962 25.7753 52.173C25.5997 52.4381 25.3801 52.6148 25.1167 52.7916C24.8532 52.9683 24.5897 53.1009 24.2824 53.1893C23.975 53.2776 23.6676 53.3218 23.3602 53.3218C23.0529 53.3218 22.7455 53.2776 22.4381 53.1893C22.1308 53.1009 21.8673 52.9683 21.6038 52.7916C21.3404 52.6148 21.1208 52.4381 20.9452 52.173C20.7695 51.9079 20.5939 51.6427 20.5061 51.3776C20.4183 51.0683 20.3304 50.759 20.2865 50.4497C20.2426 50.1404 20.1987 49.7869 20.1987 49.4776C20.1987 49.1683 20.2426 48.8148 20.2865 48.5055C20.3304 48.1962 20.4183 47.8869 20.5061 47.5776C20.5939 47.2683 20.7695 47.0032 20.9452 46.7823C21.1208 46.5172 21.3404 46.3404 21.6038 46.1637C21.8673 45.9869 22.1308 45.8544 22.4381 45.766C22.7455 45.6776 23.0529 45.6334 23.3602 45.6334C23.6676 45.6334 23.975 45.6776 24.2824 45.766C24.5897 45.8544 24.8532 45.9869 25.1167 46.1637C25.3801 46.3404 25.5997 46.5172 25.7753 46.7823C25.907 46.959 25.9949 47.1358 26.0827 47.3567C26.1705 47.5776 26.2583 47.7544 26.3022 47.9753L27.6635 47.7544C27.5756 47.4451 27.4439 47.1358 27.3122 46.8265C27.1804 46.5172 27.0048 46.252 26.7853 45.9869C26.5218 45.6334 26.1705 45.3683 25.8192 45.1032C25.4679 44.8823 25.0728 44.7055 24.6337 44.573C24.1946 44.4404 23.7555 44.3962 23.3163 44.3962C22.8772 44.3962 22.3942 44.4404 21.999 44.573C21.5599 44.7055 21.1647 44.8823 20.8135 45.1032C20.4622 45.3241 20.1109 45.6334 19.8474 45.9869C19.584 46.2962 19.3644 46.6497 19.2327 47.0474C19.057 47.4451 18.9692 47.7986 18.8814 48.2404C18.7936 48.6381 18.7936 49.08 18.7497 49.4776C18.7497 49.8753 18.7936 50.3172 18.8375 50.7148C18.9253 51.1125 19.0131 51.5102 19.1888 51.9079C19.3644 52.3055 19.584 52.659 19.8035 52.9683C20.067 53.3218 20.4183 53.5869 20.7695 53.852C21.1208 54.073 21.516 54.2497 21.9551 54.3823C22.3942 54.5148 22.8333 54.559 23.2724 54.559C23.7115 54.559 24.1506 54.5148 24.5897 54.3823C25.0288 54.2497 25.424 54.073 25.7753 53.852C26.1266 53.6311 26.4779 53.3218 26.7413 52.9683C26.917 52.7474 27.0926 52.4823 27.2244 52.2614C27.3561 51.9962 27.4439 51.7311 27.5317 51.466L26.3022 51.0683ZM37.2359 44.573H29.2881V54.2939H30.6054V45.8544H35.9186V54.2939H37.2359V44.573ZM45.4471 45.8986V44.573H39.3436V54.2939H45.4471V52.9683H40.6609V50.0962H44.6567V48.8148H40.6609V45.8986H45.4471Z" fill="#004F64"/>
</svg>
