<svg width="362" height="77" viewBox="0 0 362 77" fill="none" xmlns="http://www.w3.org/2000/svg">
<g clip-path="url(#clip0)">
<path fill-rule="evenodd" clip-rule="evenodd" d="M330.908 31.2217H345.263V25.9686H330.908V13.4196H343.816V16.338H349.025V13.4196V12.7776V10.8514C349.025 9.39225 347.867 8.2249 346.42 8.2249H330.908H325.699H321.59V13.478H325.699V46.4556C325.699 47.9148 326.857 49.0822 328.304 49.0822H329.867H330.908H348.62C350.067 49.0822 351.225 47.9148 351.225 46.4556V43.5373V42.8368V40.9107H346.015V43.8291H330.908V31.2217ZM252.422 49.8993V44.6462C261.22 44.6462 268.339 37.467 268.339 28.5952C268.339 19.7233 261.22 12.5441 252.422 12.5441V7.29102C264.056 7.29102 273.491 16.8049 273.491 28.5368C273.491 40.3854 264.056 49.8993 252.422 49.8993ZM286.166 16.4547L288.192 19.7817L304.688 46.2222L306.425 49.0238H306.946H307.351H312.155V13.4196H316.612V8.16653H312.155H311.345H309.55C308.103 8.16653 306.946 9.33388 306.946 10.7931V40.8523C306.83 40.6772 306.772 40.5021 306.656 40.327C306.077 39.3348 305.499 38.4009 304.92 37.4087L287.845 10.0343L286.687 8.16653H286.166H285.877H282.173H280.957V43.7707H276.5V49.0238H280.957H281.767H283.562C285.009 49.0238 286.166 47.8565 286.166 46.3973V16.4547ZM252.422 7.34938V12.6025C243.624 12.6025 236.505 19.7817 236.505 28.6535C236.505 37.5254 243.624 44.7046 252.422 44.7046V49.9577C241.077 49.9577 231.816 40.9107 231.353 29.529V27.8364C231.816 16.3963 241.019 7.34938 252.422 7.34938ZM231.353 13.4196V8.16653V13.4196ZM231.353 8.2249V13.478H218.562V43.8291H222.729V49.0822H218.562H213.352H209.185V43.8291H213.352V13.478H201.487V8.2249H213.352H218.562H231.353ZM231.353 27.778C231.353 28.0699 231.353 28.3617 231.353 28.6535C231.353 28.9454 231.353 29.2372 231.353 29.529V27.778ZM150.262 30.8715V25.6184H153.909H154.951C158.308 25.6184 161.028 22.8751 161.028 19.4898C161.028 16.1045 158.308 13.3612 154.951 13.3612H150.725H150.262V8.10816H154.951C161.144 8.10816 166.179 13.2445 166.179 19.4315C166.179 23.6923 163.806 27.4278 160.391 29.3539C162.533 30.9299 164.327 33.0895 165.311 35.5993C165.89 37.0585 166.237 38.6344 166.179 40.2103V48.9071H163.575C162.128 48.9071 160.97 47.7397 160.97 46.2805V38.6344C160.97 37.4087 160.565 36.1829 159.87 35.1907C158.771 33.498 156.861 32.0972 154.777 30.8715H153.851H150.262ZM150.262 8.2249V13.478H139.496V19.5482V19.6649V25.7352H150.262V30.9882H145.574H139.496V49.1405H136.892C135.445 49.1405 134.287 47.9732 134.287 46.514V19.6649V13.4196H130.178V8.16653H134.287H139.496H145.574H148.121H150.262V8.2249ZM28.1915 8.2249H24.545H23.3295V43.8291H18.8148V49.0822H23.2717H24.082H25.8763C27.3233 49.0822 28.4809 47.9148 28.4809 46.4556V16.4547L30.5068 19.7817L47.0028 46.2222L48.7392 49.0238H49.2602H49.6653H54.4694V13.4196H58.9263V8.16653H54.4694H53.6591H51.8648C50.4178 8.16653 49.2602 9.33388 49.2602 10.7931V40.8523C49.1444 40.6772 49.0865 40.5021 48.9708 40.327C48.3919 39.3348 47.8131 38.4009 47.2343 37.4087L30.1016 10.0343L28.944 8.16653H28.4231H28.1915V8.2249ZM9.66967 13.4196V43.7707H13.8371V49.0238H9.66967H4.46039H0.292969V43.7707H4.46039V13.4196H0.292969V8.16653H4.46039H9.66967H13.8371V13.4196H9.66967ZM80.9789 13.4196V43.7707H85.1463V49.0238H80.9789H75.7696H71.6022V43.7707H75.7696V13.4196H63.904V8.16653H75.7696H80.9789H92.8444V13.4196H80.9789ZM101.932 13.4196V46.3973C101.932 47.8565 103.089 49.0238 104.536 49.0238H106.099H107.141H124.853C126.3 49.0238 127.457 47.8565 127.457 46.3973V43.4789V42.7785V40.8523H122.248V43.7707H107.141V31.2217H121.495V25.9686H107.141V13.4196H120.048V16.338H125.258V13.4196V12.7776V10.8514C125.258 9.39225 124.1 8.2249 122.653 8.2249H107.141H101.932H97.8222V13.478H101.932V13.4196Z" fill="white"/>
<path fill-rule="evenodd" clip-rule="evenodd" d="M187.769 31.2214H187.885C191.3 31.2214 194.136 34.0231 194.136 37.5251C194.136 40.9688 191.358 43.8288 187.885 43.8288H185.57H166.18V49.0819H185.454H185.57H187.885C194.136 49.0819 199.288 43.8872 199.288 37.5835C199.288 31.2798 194.136 26.0851 187.885 26.0851H187.769H185.975V26.1434V26.0851H182.618C179.203 26.0851 176.367 23.2834 176.367 19.7814C176.367 16.3377 179.145 13.4777 182.618 13.4777H184.933H201.719V8.22461H185.049H184.933H182.618C176.367 8.22461 171.215 13.4193 171.215 19.723C171.215 26.0267 176.367 31.2214 182.618 31.2214H185.917H187.769Z" fill="#CF3620"/>
<path d="M210.728 67.932V66.2977H213.795V61.4532H210.728V59.819H215.474V72.6598H213.795V67.9904H210.728V67.932ZM210.728 59.7606V61.3949H209.975C209.744 61.3949 209.57 61.4532 209.339 61.5116C209.107 61.57 208.933 61.6867 208.76 61.8035C208.586 61.9202 208.413 62.0369 208.297 62.212C208.065 62.4455 207.892 62.679 207.834 62.9708C207.718 63.2626 207.66 63.5545 207.66 63.9047C207.66 64.1965 207.718 64.43 207.776 64.7218C207.892 64.9553 208.007 65.2471 208.181 65.4222C208.355 65.5973 208.528 65.7724 208.702 65.8892C208.876 66.0059 209.107 66.1226 209.339 66.181C209.57 66.2394 209.802 66.2977 209.975 66.2977H210.728V67.932H210.149L207.892 72.6014H205.924L208.355 67.5235C208.065 67.4067 207.776 67.2316 207.486 67.0565C207.255 66.8814 207.023 66.648 206.792 66.3561C206.618 66.1226 206.445 65.8892 206.329 65.5973C206.213 65.3055 206.097 65.0137 206.039 64.7218C205.982 64.43 205.924 64.1382 205.924 63.7879C205.924 63.321 206.039 62.8541 206.213 62.3871C206.387 61.9202 206.618 61.5116 206.966 61.1614C207.197 60.8696 207.429 60.6361 207.776 60.4026C208.065 60.1692 208.413 60.0524 208.76 59.9357C208.991 59.8773 209.165 59.819 209.397 59.7606C209.628 59.7022 209.86 59.7022 210.091 59.7022H210.728V59.7606ZM171.832 70.2667V68.6324H174.205L171.832 61.57V59.7606H173.047L177.215 72.6014H175.42L174.668 70.2667H171.832ZM191.511 59.7606H189.775L185.144 69.7414L180.456 59.7606H178.72V72.6014H180.456V63.5545L184.681 72.6014H185.492L189.717 63.4961V72.6014H191.453V59.7606H191.511ZM202.567 59.7606V66.2394H196.026V59.7606H194.29V72.6014H196.026V67.932H202.567V72.6014H204.303V59.7606H202.567ZM171.832 59.7606V61.57L169.517 68.6908H171.89V70.3251H168.996L168.243 72.6598H166.449L170.674 59.819H171.832V59.7606ZM134.962 67.932V66.2977H135.656C135.888 66.2977 136.061 66.2394 136.293 66.181C136.525 66.1226 136.698 66.0059 136.93 65.8892C137.103 65.7724 137.277 65.5973 137.451 65.4222C137.624 65.1888 137.74 64.9553 137.856 64.7218C137.972 64.4884 137.972 64.1965 137.972 63.9047C137.972 63.6128 137.914 63.2626 137.798 62.9708C137.682 62.679 137.508 62.4455 137.335 62.212C137.219 62.0369 137.045 61.9202 136.872 61.8035C136.698 61.6867 136.467 61.57 136.293 61.5116C136.061 61.4532 135.888 61.3949 135.656 61.3949H134.962V59.7606H135.714C135.946 59.7606 136.177 59.7606 136.351 59.819C136.582 59.8773 136.814 59.9357 136.988 59.9941C137.335 60.1108 137.682 60.2859 137.972 60.461C138.261 60.6945 138.55 60.9279 138.782 61.2198C139.071 61.57 139.361 61.9786 139.534 62.4455C139.708 62.9124 139.766 63.3794 139.824 63.8463C139.824 64.1382 139.824 64.43 139.708 64.7802C139.65 65.072 139.534 65.3639 139.419 65.6557C139.303 65.9475 139.129 66.181 138.956 66.4145C138.724 66.7063 138.435 66.9982 138.087 67.2316C137.74 67.4651 137.393 67.6402 136.988 67.7569C136.582 67.8737 136.177 67.932 135.772 67.932H134.962ZM149.721 61.5116V59.7606H141.676V72.6014H149.721V70.8504H143.412V67.0565H148.679V65.3639H143.412V61.5116H149.721ZM160.487 66.648L164.249 72.6014H166.333L161.992 65.8892L165.986 59.7606H163.96L160.545 65.2471H157.883V59.7606H156.146V72.6014H157.883V66.648H160.487ZM134.962 59.7606V61.3949H131.894V66.2394H134.962V67.8737H131.894V72.5431H130.158V59.7022H134.962V59.7606ZM91.3196 72.6014V70.9671H91.8984C92.1878 70.9671 92.4193 70.9671 92.6508 70.9088C92.8824 70.9088 93.1139 70.8504 93.2875 70.7337C93.4612 70.6169 93.6927 70.5002 93.8663 70.3251C94.04 70.15 94.2136 69.9165 94.2715 69.6831C94.3873 69.4496 94.4451 69.1578 94.4451 68.9243C94.4451 68.6908 94.3873 68.399 94.3294 68.1655C94.2715 67.932 94.0979 67.6986 93.9821 67.5235C93.8663 67.3484 93.6927 67.1733 93.5191 67.0565C93.3454 66.9398 93.1718 66.8231 92.9402 66.7647C92.7666 66.7063 92.5351 66.648 92.3614 66.648H91.3196V65.0137H92.0141C92.1878 65.0137 92.3614 64.9553 92.5351 64.8969C92.7087 64.8386 92.8824 64.7802 93.056 64.6635C93.2297 64.5467 93.3454 64.43 93.4612 64.2549C93.5769 64.0798 93.6927 63.9047 93.7506 63.7296C93.8084 63.5545 93.8663 63.321 93.8663 63.1459C93.8663 62.9124 93.8084 62.7373 93.7506 62.5039C93.6348 62.3288 93.5769 62.0953 93.4033 61.9786C93.2296 61.8035 92.9981 61.6283 92.8245 61.5116C92.5929 61.3949 92.3614 61.3949 92.072 61.3949H91.3774V59.7606H91.7247C91.8984 59.7606 92.0142 59.7606 92.1878 59.7606C92.3614 59.7606 92.5351 59.7606 92.7087 59.819C92.8824 59.819 92.9981 59.8773 93.1139 59.9357C93.4612 60.0524 93.7506 60.1692 94.0979 60.4026C94.3873 60.5777 94.6767 60.8696 94.9082 61.1614C95.1397 61.4532 95.3133 61.7451 95.4291 62.0953C95.5449 62.4455 95.6028 62.7957 95.6607 63.2043C95.6607 63.6128 95.6606 63.9631 95.487 64.3133C95.3712 64.6635 95.1976 65.0137 94.9082 65.3055C94.8503 65.3639 94.7924 65.4806 94.7346 65.539C94.6767 65.5973 94.6188 65.7141 94.5609 65.7724C94.7345 65.8892 94.9082 66.0059 95.0818 66.181C95.2555 66.3561 95.3712 66.5312 95.5449 66.7063C95.7764 67.0565 95.9501 67.4067 96.1237 67.8153C96.2394 68.2239 96.2973 68.6325 96.2973 69.041C96.2973 69.4496 96.2394 69.8582 96.0658 70.2084C95.95 70.6169 95.7185 70.9671 95.487 71.259C95.1976 71.5508 94.9082 71.8427 94.6188 72.0761C94.2715 72.3096 93.9242 72.4847 93.5769 72.5431C93.3454 72.6014 93.056 72.6598 92.7666 72.6598C92.4772 72.6598 92.2457 72.7182 91.9563 72.7182H91.3196V72.6014ZM114.819 59.7606H113.083L108.452 69.7414L103.764 59.7606H102.028V72.6014H103.764V63.5545L107.989 72.6014H108.8L113.025 63.4961V72.6014H114.761V59.7606H114.819ZM125.874 59.7606L119.392 69.4496V59.7606H117.655V72.6014H119.218L125.643 62.9708V72.6598H127.379V59.819H125.874V59.7606ZM91.3196 59.7606V61.3949H88.7728V65.072H91.3196V66.7063H88.7728V70.9671H91.3196V72.6014H87.0364V59.7606H91.3196ZM65.7941 67.932V66.2977H66.4887C66.7202 66.2977 66.8939 66.2394 67.1254 66.181C67.3569 66.1226 67.5305 66.0059 67.7621 65.8892C67.9357 65.7724 68.1094 65.5973 68.283 65.4222C68.4566 65.1888 68.5724 64.9553 68.6882 64.7218C68.8039 64.4884 68.8039 64.1965 68.8039 63.9047C68.8039 63.6128 68.746 63.2626 68.6303 62.9708C68.5145 62.679 68.3409 62.4455 68.1672 62.212C68.0515 62.0369 67.8778 61.9202 67.7042 61.8035C67.5305 61.6867 67.299 61.57 67.1254 61.5116C66.8939 61.4532 66.7202 61.3949 66.4887 61.3949H65.7941V59.7606H66.5466C66.7781 59.7606 67.0096 59.7606 67.1833 59.819C67.4148 59.8773 67.6463 59.9357 67.82 59.9941C68.1672 60.1108 68.5145 60.2859 68.8039 60.461C69.0933 60.6945 69.3827 60.9279 69.6143 61.2198C69.9037 61.57 70.1931 61.9786 70.3667 62.4455C70.5404 62.9124 70.6561 63.3794 70.6561 63.8463C70.6561 64.1382 70.6561 64.43 70.5403 64.7802C70.4825 65.072 70.3667 65.3639 70.2509 65.6557C70.1352 65.9475 69.9615 66.181 69.7879 66.4145C69.5564 66.7063 69.267 66.9982 68.9197 67.2316C68.5724 67.4651 68.2251 67.6402 67.82 67.7569C67.4148 67.8737 67.0096 67.932 66.6045 67.932H65.7941ZM81.5956 59.7606H71.2928V61.5116H75.576V72.6598H77.3124V61.5116H81.5956V59.7606ZM8.89725 61.57C8.54997 61.103 8.08692 60.6945 7.62388 60.4026C7.16083 60.1108 6.63989 59.8773 6.06109 59.7022C5.48228 59.5271 4.90347 59.4688 4.32466 59.4688C3.74585 59.4688 3.10916 59.5271 2.58823 59.7022C2.00943 59.8773 1.4885 60.1108 1.02545 60.4026C0.562406 60.6945 0.0993614 61.103 -0.247924 61.57C-0.537328 61.9202 -0.76885 62.3288 -0.942492 62.679C-1.11613 63.0875 -1.28978 63.4961 -1.34766 63.9047L0.446645 64.1965C0.504526 63.9047 0.620287 63.6128 0.736049 63.3794C0.851811 63.0875 1.02545 62.8541 1.1991 62.6206C1.43062 62.2704 1.72003 62.0369 2.06731 61.8035C2.4146 61.57 2.76188 61.3949 3.16704 61.2781C3.57221 61.1614 3.97738 61.103 4.38254 61.103C4.78771 61.103 5.19288 61.1614 5.59805 61.2781C6.00321 61.3949 6.35049 61.57 6.69778 61.8035C7.04506 62.0369 7.33447 62.2704 7.56599 62.6206C7.8554 63.0292 8.08692 63.4377 8.20268 63.9047C8.37633 64.3716 8.43421 64.8386 8.49209 65.3639H3.9195V67.0565H8.49209C8.43421 67.5818 8.37633 68.0488 8.20268 68.5157C8.02904 68.9827 7.8554 69.3912 7.56599 69.7998C7.33447 70.15 7.04506 70.3835 6.69778 70.6169C6.35049 70.8504 6.00321 71.0255 5.59805 71.1423C5.19288 71.259 4.78771 71.3174 4.38254 71.3174C3.97738 71.3174 3.57221 71.259 3.16704 71.1423C2.76188 71.0255 2.4146 70.8504 2.06731 70.6169C1.72003 70.3835 1.43062 70.0916 1.1991 69.7998C1.02545 69.5663 0.909695 69.3329 0.793933 69.0994C0.678172 68.8659 0.56241 68.6324 0.504529 68.3406L-1.17402 68.8076C-1.05826 69.1578 -0.94249 69.508 -0.768848 69.8582C-0.595205 70.2084 -0.421568 70.5002 -0.132164 70.792C0.215121 71.259 0.678166 71.6676 1.14121 71.9594C1.60426 72.2512 2.12519 72.4847 2.704 72.6598C3.28281 72.8349 3.86162 72.8933 4.44043 72.8933C5.07712 72.8933 5.65593 72.8349 6.17685 72.6598C6.75566 72.4847 7.27659 72.2512 7.73964 71.9594C8.20268 71.6676 8.60785 71.259 9.01301 70.792C9.3603 70.3251 9.6497 69.8582 9.88122 69.3912C10.1127 68.8659 10.2285 68.3406 10.3443 67.8153C10.46 67.29 10.5179 66.7063 10.46 66.181C10.46 65.5973 10.4022 65.072 10.2864 64.5467C10.1706 64.0214 10.0549 63.4961 9.82334 62.9708C9.53394 62.5039 9.24454 62.0369 8.89725 61.57ZM65.7941 59.7606V61.3949H62.7264V66.2394H65.7941V67.8737H62.7264V72.5431H60.99V59.7022H65.7941V59.7606ZM16.8848 66.648L20.6471 72.6014H22.7308L18.3897 65.8892L22.3835 59.7606H20.2998L16.8848 65.2471H14.2223V59.7606H12.4859V72.6014H14.2223V66.648H16.8848ZM33.323 68.3406C33.2651 68.5741 33.1493 68.8659 33.0336 69.0994C32.9178 69.3329 32.802 69.5663 32.6284 69.7998C32.3969 70.15 32.1075 70.3835 31.7602 70.6169C31.4129 70.8504 31.0656 71.0255 30.6604 71.1423C30.2553 71.259 29.8501 71.3174 29.4449 71.3174C29.0398 71.3174 28.6346 71.259 28.2295 71.1423C27.8243 71.0255 27.477 70.8504 27.1297 70.6169C26.7824 70.3835 26.493 70.15 26.2615 69.7998C26.03 69.4496 25.7985 69.0994 25.6827 68.7492C25.5669 68.3406 25.4512 67.932 25.3933 67.5235C25.3354 67.1149 25.2775 66.648 25.2775 66.2394C25.2775 65.8308 25.3354 65.3639 25.3933 64.9553C25.4512 64.5467 25.5669 64.1382 25.6827 63.7296C25.7985 63.321 26.03 62.9708 26.2615 62.679C26.493 62.3288 26.7824 62.0953 27.1297 61.8618C27.477 61.6283 27.8243 61.4532 28.2295 61.3365C28.6346 61.2198 29.0398 61.1614 29.4449 61.1614C29.8501 61.1614 30.2553 61.2198 30.6604 61.3365C31.0656 61.4532 31.4129 61.6283 31.7602 61.8618C32.1075 62.0953 32.3969 62.3288 32.6284 62.679C32.802 62.9124 32.9178 63.1459 33.0336 63.4377C33.1493 63.7296 33.2651 63.963 33.323 64.2549L35.1173 63.963C35.0015 63.5545 34.8279 63.1459 34.6542 62.7373C34.4806 62.3288 34.2491 61.9786 33.9597 61.6283C33.6124 61.1614 33.1493 60.8112 32.6863 60.461C32.2232 60.1692 31.7023 59.9357 31.1235 59.7606C30.5447 59.5855 29.9659 59.5271 29.3871 59.5271C28.8083 59.5271 28.1716 59.5855 27.6507 59.7606C27.0718 59.9357 26.5509 60.1692 26.0879 60.461C25.6248 60.7528 25.1618 61.1614 24.8145 61.6283C24.4672 62.0369 24.1778 62.5039 24.0041 63.0292C23.7726 63.5545 23.6569 64.0214 23.5411 64.6051C23.4253 65.1304 23.4253 65.7141 23.3675 66.2394C23.3675 66.7647 23.4253 67.3484 23.4832 67.8737C23.599 68.399 23.7147 68.9243 23.9463 69.4496C24.1778 69.9749 24.4672 70.4418 24.7566 70.8504C25.1039 71.3174 25.5669 71.6676 26.03 72.0178C26.493 72.3096 27.014 72.5431 27.5928 72.7182C28.1716 72.8933 28.7504 72.9516 29.3292 72.9516C29.908 72.9516 30.4868 72.8933 31.0656 72.7182C31.6444 72.5431 32.1653 72.3096 32.6284 72.0178C33.0914 71.7259 33.5545 71.3174 33.9018 70.8504C34.1333 70.5586 34.3648 70.2084 34.5385 69.9165C34.7121 69.5663 34.8279 69.2161 34.9436 68.8659L33.323 68.3406ZM47.7353 59.7606H37.2589V72.6014H38.9953V61.4532H45.9989V72.6014H47.7353V59.7606ZM58.559 61.5116V59.7606H50.5136V72.6014H58.559V70.8504H52.25V67.0565H57.5172V65.3639H52.25V61.5116H58.559Z" fill="white"/>
</g>
<defs>
<clipPath id="clip0">
<rect width="361.176" height="75.2941" fill="white" transform="translate(0.292969 0.882812)"/>
</clipPath>
</defs>
</svg>
