<svg xmlns="http://www.w3.org/2000/svg" fill="none" viewBox="0 0 362 77"><g clip-path="url(#clip0)"><path fill="#fff" fill-rule="evenodd" d="M330.908 31.222h14.355v-5.253h-14.355v-12.55h12.908v2.919h5.209v-5.487a2.605 2.605 0 0 0-2.605-2.626h-24.83v5.253h4.109v32.978a2.605 2.605 0 0 0 2.605 2.626h20.316a2.605 2.605 0 0 0 2.605-2.626V40.91h-5.21v2.918h-15.107V31.222zm-78.486 18.677v-5.253c8.798 0 15.917-7.179 15.917-16.05 0-8.873-7.119-16.052-15.917-16.052V7.291c11.634 0 21.069 9.514 21.069 21.246 0 11.848-9.435 21.362-21.069 21.362zm33.744-33.444l2.026 3.327 16.496 26.44 1.737 2.802h5.73V13.42h4.457V8.167H309.55a2.604 2.604 0 0 0-2.604 2.626v30.06c-.116-.176-.174-.35-.29-.526-.579-.992-1.157-1.926-1.736-2.918l-17.075-27.375-1.158-1.867h-5.73V43.77H276.5v5.253H283.562a2.604 2.604 0 0 0 2.604-2.627V16.455zm-33.744-9.106v5.253c-8.798 0-15.917 7.18-15.917 16.052 0 8.871 7.119 16.05 15.917 16.05v5.254c-11.345 0-20.606-9.047-21.069-20.429v-1.693c.463-11.44 9.666-20.487 21.069-20.487zm-21.069 6.07V8.168v5.253zm0-5.194v5.253h-12.791v30.351h4.167v5.253H209.185V43.83h4.167V13.478h-11.865V8.225h29.866zm0 19.553v1.751-1.751zm-81.091 3.094v-5.254h4.689c3.357 0 6.077-2.743 6.077-6.128 0-3.385-2.72-6.129-6.077-6.129h-4.689V8.108h4.689c6.193 0 11.228 5.136 11.228 11.323 0 4.261-2.373 7.997-5.788 9.923 2.142 1.576 3.936 3.736 4.92 6.245.579 1.46.926 3.035.868 4.611v8.697h-2.604a2.605 2.605 0 0 1-2.605-2.626v-7.647a6.08 6.08 0 0 0-1.1-3.443c-1.099-1.693-3.009-3.094-5.093-4.32h-4.515zm0-22.647v5.253h-10.766V25.735h10.766v5.253h-10.766v18.153h-2.604a2.605 2.605 0 0 1-2.605-2.627V13.42h-4.109V8.167H150.262v.058zm-122.07 0H23.329v35.604h-4.514v5.253h7.061a2.605 2.605 0 0 0 2.605-2.626V16.455l2.026 3.327 16.496 26.44 1.736 2.802h5.73V13.42h4.457V8.167h-7.061a2.605 2.605 0 0 0-2.605 2.626v30.06c-.116-.176-.173-.35-.29-.526-.578-.992-1.157-1.926-1.736-2.918L30.102 10.034l-1.158-1.867h-.752v.058zM9.67 13.42v30.35h4.167v5.254H.293V43.77H4.46V13.42H.293V8.167H13.837v5.253H9.67zm71.309 0v30.35h4.167v5.254H71.602V43.77h4.168V13.42H63.904V8.167H92.844v5.253H80.98zm20.953 0v32.977a2.604 2.604 0 0 0 2.604 2.627h20.317a2.604 2.604 0 0 0 2.604-2.627v-5.545h-5.209v2.919h-15.107V31.22h14.354V25.97h-14.354v-12.55h12.907v2.919h5.21v-5.487a2.605 2.605 0 0 0-2.605-2.626H97.822v5.253h4.11v-.058z" clip-rule="evenodd"/><path fill="#CF3620" fill-rule="evenodd" d="M187.769 31.221h.116c3.415 0 6.251 2.802 6.251 6.304 0 3.444-2.778 6.304-6.251 6.304H166.18v5.253H187.885c6.251 0 11.403-5.195 11.403-11.498 0-6.304-5.152-11.499-11.403-11.499H185.975v.058-.058h-3.357c-3.415 0-6.251-2.802-6.251-6.304 0-3.443 2.778-6.303 6.251-6.303H201.719V8.225H182.618c-6.251 0-11.403 5.194-11.403 11.498 0 6.304 5.152 11.498 11.403 11.498h5.151z" clip-rule="evenodd"/><path fill="#fff" d="M210.728 67.932v-1.634h3.067v-4.845h-3.067V59.82h4.746v12.84h-1.679V67.99h-3.067v-.058zm0-8.171v1.634h-.753c-.231 0-.405.058-.636.117-.232.058-.406.175-.579.291-.174.117-.347.234-.463.409-.232.233-.405.467-.463.759a2.433 2.433 0 0 0-.174.934c0 .291.058.525.116.817.116.233.231.525.405.7.174.175.347.35.521.467.174.117.405.234.637.292.231.058.463.117.636.117h.753v1.634h-.579l-2.257 4.67h-1.968l2.431-5.079c-.29-.116-.579-.291-.869-.466a3.942 3.942 0 0 1-.694-.7c-.174-.234-.347-.468-.463-.76-.116-.291-.232-.583-.29-.875-.057-.292-.115-.584-.115-.934 0-.467.115-.934.289-1.4.174-.468.405-.876.753-1.227a3.39 3.39 0 0 1 .81-.758c.289-.234.637-.35.984-.467.231-.059.405-.117.637-.175.231-.059.463-.059.694-.059h.637v.059zm-38.896 10.506v-1.635h2.373l-2.373-7.062v-1.81h1.215l4.168 12.841h-1.795l-.752-2.334h-2.836zm19.679-10.506h-1.736l-4.631 9.98-4.688-9.98h-1.736V72.6h1.736v-9.047l4.225 9.047h.811l4.225-9.105v9.105h1.736v-12.84h.058zm11.056 0v6.478h-6.541v-6.478h-1.736V72.6h1.736v-4.669h6.541v4.67h1.736V59.76h-1.736zm-30.735 0v1.809l-2.315 7.12h2.373v1.635h-2.894l-.753 2.335h-1.794l4.225-12.841h1.158v-.058zm-36.87 8.171v-1.634h.694c.232 0 .405-.059.637-.117.232-.058.405-.175.637-.292.173-.117.347-.292.521-.467.173-.233.289-.467.405-.7.116-.234.116-.525.116-.817 0-.292-.058-.642-.174-.934-.116-.292-.29-.525-.463-.759-.116-.175-.29-.292-.463-.409a2.695 2.695 0 0 0-.579-.291c-.232-.059-.405-.117-.637-.117h-.694V59.76h.752c.232 0 .463 0 .637.058.231.058.463.117.637.175.347.117.694.292.984.467.289.233.578.467.81.759.289.35.579.759.752 1.226.174.466.232.933.29 1.4 0 .292 0 .584-.116.934-.058.292-.174.584-.289.876-.116.291-.29.525-.463.758a3.907 3.907 0 0 1-.869.818 3.817 3.817 0 0 1-1.099.525 4.378 4.378 0 0 1-1.216.175h-.81zm14.759-6.42V59.76h-8.045V72.6h8.045v-1.75h-6.309v-3.794h5.267v-1.693h-5.267v-3.852h6.309zm10.766 5.136l3.762 5.953h2.084l-4.341-6.712 3.994-6.128h-2.026l-3.415 5.486h-2.662v-5.486h-1.737V72.6h1.737v-5.953h2.604zm-25.525-6.887v1.634h-3.068v4.844h3.068v1.635h-3.068v4.67h-1.736V59.701h4.804v.059zM91.32 72.6v-1.634h.578c.29 0 .521 0 .753-.058.231 0 .463-.059.636-.175.174-.117.406-.234.58-.409.173-.175.347-.409.404-.642a1.81 1.81 0 0 0 .174-.759c0-.233-.058-.525-.116-.759-.057-.233-.231-.466-.347-.642a1.771 1.771 0 0 0-.463-.466c-.174-.117-.347-.234-.579-.292a2.04 2.04 0 0 0-.579-.117H91.32v-1.634h.694c.174 0 .347-.059.521-.117.174-.058.347-.117.521-.234.174-.116.29-.233.405-.408.116-.175.232-.35.29-.525.057-.175.115-.409.115-.584 0-.234-.058-.409-.115-.642-.116-.175-.174-.409-.348-.525a4.065 4.065 0 0 0-.579-.467c-.231-.117-.463-.117-.752-.117h-.695V59.76H92.188c.173 0 .347 0 .52.058.174 0 .29.058.406.117.347.116.637.233.984.467.29.175.579.467.81.758.232.292.405.584.521.934.116.35.174.7.232 1.11 0 .408 0 .758-.174 1.108-.116.35-.29.7-.579.992-.058.059-.116.176-.173.234-.058.058-.116.175-.174.233.173.117.347.234.52.409.174.175.29.35.464.525.231.35.405.7.579 1.11.115.408.173.816.173 1.225 0 .409-.058.817-.231 1.167-.116.409-.347.76-.579 1.051-.29.292-.579.584-.868.817-.347.234-.695.409-1.042.467-.232.058-.521.117-.81.117-.29 0-.521.058-.81.058h-.637v-.117zm23.499-12.84h-1.736l-4.631 9.98-4.688-9.98h-1.736V72.6h1.736v-9.047l4.225 9.047h.811l4.225-9.105v9.105h1.736v-12.84h.058zm11.055 0l-6.482 9.689v-9.69h-1.737v12.841h1.563l6.425-9.63v9.689h1.736V59.819h-1.505v-.058zm-34.554 0v1.634h-2.547v3.677h2.547v1.634h-2.547v4.261h2.547v1.634h-4.284v-12.84h4.284zm-25.526 8.171v-1.634h.695c.231 0 .405-.059.636-.117.232-.058.406-.175.637-.292.174-.117.347-.292.521-.467.174-.233.29-.467.405-.7.116-.234.116-.525.116-.817 0-.292-.058-.642-.174-.934-.115-.292-.29-.525-.463-.759-.115-.175-.29-.292-.463-.409a2.696 2.696 0 0 0-.579-.291c-.231-.059-.405-.117-.636-.117h-.695V59.76h.753c.231 0 .463 0 .636.058.232.058.463.117.637.175.347.117.695.292.984.467.29.233.579.467.81.759.29.35.58.759.753 1.226.173.466.29.933.29 1.4 0 .292 0 .584-.117.934-.058.292-.173.584-.29.876-.115.291-.288.525-.462.758a3.907 3.907 0 0 1-1.968 1.343 4.37 4.37 0 0 1-1.215.175h-.81zm15.802-8.171H71.293v1.75h4.283V72.66h1.736V61.512h4.284V59.76zM8.897 61.57a4.837 4.837 0 0 0-1.273-1.167 6.38 6.38 0 0 0-1.563-.7 5.928 5.928 0 0 0-1.736-.234c-.58 0-1.216.058-1.737.233a6.38 6.38 0 0 0-1.563.7c-.463.292-.926.701-1.273 1.168-.29.35-.52.759-.694 1.109-.174.408-.348.817-.406 1.226l1.795.291c.058-.291.173-.583.289-.817.116-.291.29-.525.463-.758.232-.35.521-.584.868-.818a3.826 3.826 0 0 1 1.1-.525c.405-.117.81-.175 1.216-.175.405 0 .81.058 1.215.175.405.117.752.292 1.1.526.347.233.636.466.868.817.29.408.52.817.637 1.284.173.467.231.934.29 1.459H3.918v1.692h4.573c-.058.526-.116.993-.29 1.46-.173.467-.347.875-.636 1.284-.232.35-.52.584-.868.817a3.826 3.826 0 0 1-1.1.525c-.405.117-.81.175-1.215.175-.406 0-.81-.058-1.216-.175A3.908 3.908 0 0 1 1.199 69.8a4.362 4.362 0 0 1-.405-.7c-.116-.233-.232-.467-.29-.758l-1.678.467c.116.35.232.7.405 1.05.174.35.347.642.637.934.347.467.81.876 1.273 1.167a6.38 6.38 0 0 0 1.563.7 5.928 5.928 0 0 0 1.736.234c.637 0 1.216-.058 1.737-.233a6.38 6.38 0 0 0 1.563-.7c.463-.292.868-.701 1.273-1.168.347-.467.637-.934.868-1.4.232-.526.348-1.051.463-1.577.116-.525.174-1.109.116-1.634a7.44 7.44 0 0 0-.174-1.634c-.115-.526-.231-1.05-.463-1.576-.29-.467-.578-.934-.926-1.401zm56.897-1.81v1.635h-3.068v4.844h3.068v1.635h-3.068v4.67H60.99V59.701h4.804v.059zm-48.91 6.888l3.763 5.953h2.084L18.39 65.89l3.994-6.128H20.3l-3.415 5.486h-2.663v-5.486h-1.736V72.6h1.736v-5.953h2.663zm16.439 1.693a4.08 4.08 0 0 1-.29.758 4.369 4.369 0 0 1-.405.7c-.231.351-.52.584-.868.818a3.826 3.826 0 0 1-1.1.525c-.405.117-.81.175-1.215.175s-.81-.058-1.215-.175a3.826 3.826 0 0 1-1.1-.525c-.348-.234-.637-.467-.868-.817-.232-.35-.463-.7-.58-1.05-.115-.41-.23-.818-.289-1.227a9.62 9.62 0 0 1-.116-1.284c0-.408.058-.875.116-1.284.058-.408.174-.817.29-1.225.116-.409.347-.76.579-1.051.231-.35.52-.584.868-.817a3.823 3.823 0 0 1 1.1-.526c.405-.116.81-.175 1.215-.175s.81.059 1.215.175c.406.117.753.292 1.1.526.348.233.637.467.868.817.174.233.29.467.406.759.115.292.231.525.289.817l1.794-.292c-.115-.409-.29-.817-.463-1.226a4.447 4.447 0 0 0-.694-1.109c-.348-.467-.81-.817-1.274-1.167a6.38 6.38 0 0 0-1.563-.7 5.928 5.928 0 0 0-1.736-.234c-.579 0-1.215.059-1.736.234-.58.175-1.1.408-1.563.7-.463.292-.926.7-1.274 1.167a4.222 4.222 0 0 0-.81 1.401c-.231.525-.347.992-.463 1.576-.116.525-.116 1.11-.174 1.634 0 .526.058 1.11.116 1.635.116.525.232 1.05.463 1.576.232.525.521.992.81 1.4.348.467.81.818 1.274 1.168a6.38 6.38 0 0 0 1.563.7 5.928 5.928 0 0 0 1.736.234c.579 0 1.158-.059 1.737-.234a6.38 6.38 0 0 0 1.562-.7c.463-.292.926-.7 1.274-1.168.231-.291.463-.642.636-.933.174-.35.29-.7.406-1.051l-1.621-.525zm14.412-8.58H37.26V72.6h1.736V61.453H46v11.148h1.736v-12.84zm10.824 1.75v-1.75h-8.045V72.6h8.045v-1.75H52.25v-3.794h5.267v-1.693H52.25v-3.852h6.309z"/></g><defs><clipPath id="clip0"><path fill="#fff" d="M0 0h361.176v75.294H0z" transform="translate(.293 .883)"/></clipPath></defs></svg>