<svg xmlns="http://www.w3.org/2000/svg" fill="none" viewBox="0 0 321 68"><path fill="#fff" fill-rule="evenodd" d="M293.495 27.42h12.743v-4.639h-12.743V11.698h11.458v2.577h4.625V9.43a2.307 2.307 0 0 0-2.312-2.32h-22.043v4.64h3.648v29.126a2.306 2.306 0 0 0 2.312 2.32h18.035a2.306 2.306 0 0 0 2.312-2.32v-4.897h-4.624v2.577h-13.411V27.42zm-69.674 16.497v-4.64c7.81 0 14.13-6.34 14.13-14.176s-6.32-14.176-14.13-14.176v-4.64c10.328 0 18.703 8.403 18.703 18.764 0 10.465-8.375 18.868-18.703 18.868zm29.956-29.538l1.798 2.938 14.644 23.352 1.541 2.475h5.087V11.698h3.957v-4.64h-6.269a2.307 2.307 0 0 0-2.312 2.32v26.549c-.103-.155-.154-.31-.257-.464-.514-.877-1.028-1.702-1.541-2.578L255.267 8.708l-1.028-1.65h-5.087v31.446h-3.956v4.64h6.269a2.307 2.307 0 0 0 2.312-2.32V14.379zm-29.956-8.042v4.64c-7.81 0-14.13 6.34-14.13 14.176 0 7.835 6.32 14.176 14.13 14.176v4.64c-10.071 0-18.292-7.99-18.703-18.043V24.43c.411-10.104 8.581-18.094 18.703-18.094zm-18.703 5.36V7.059v4.64zm0-4.587v4.64h-11.356v26.806h3.7v4.64H185.438v-4.64h3.7V11.75h-10.533V7.11H205.118zm0 17.27v1.546-1.547zm-71.987 2.732v-4.64h4.162c2.98 0 5.395-2.423 5.395-5.413s-2.415-5.413-5.395-5.413h-4.162v-4.64h4.162c5.498 0 9.968 4.537 9.968 10.002 0 3.763-2.106 7.062-5.138 8.763 1.901 1.392 3.494 3.3 4.368 5.516.514 1.289.822 2.68.77 4.073v7.68h-2.312a2.307 2.307 0 0 1-2.312-2.32v-6.752c0-1.083-.36-2.165-.976-3.042-.977-1.495-2.672-2.732-4.522-3.814h-4.008zm0-20.002v4.64h-9.557v10.825h9.557v4.64H123.574v16.032h-2.312a2.306 2.306 0 0 1-2.312-2.32V11.698h-3.648v-4.64h17.829v.052zm-108.365 0H20.45v31.446h-4.008v4.64h6.269a2.306 2.306 0 0 0 2.312-2.32V14.379l1.799 2.938 14.643 23.352 1.542 2.475h5.087V11.698h3.956v-4.64h-6.269a2.306 2.306 0 0 0-2.312 2.32v26.549c-.102-.155-.154-.31-.257-.464-.513-.877-1.027-1.702-1.541-2.578L26.461 8.708l-1.027-1.65h-.668v.052zM8.324 11.698v26.806h3.7v4.64H0v-4.64h3.7V11.698H0v-4.64H12.024v4.64h-3.7zm63.303 0v26.806h3.7v4.64H63.301v-4.64h3.7V11.698H56.47v-4.64H82.16v4.64H71.627zm18.6 0v29.126a2.306 2.306 0 0 0 2.312 2.32h18.036a2.307 2.307 0 0 0 2.312-2.32v-4.897h-4.625v2.577h-13.41V27.421h12.742v-4.64H94.852V11.698h11.458v2.577h4.624V9.43a2.306 2.306 0 0 0-2.312-2.32H86.579v4.64h3.648v-.052z" clip-rule="evenodd"/><path fill="#CF3620" fill-rule="evenodd" d="M166.423 27.42h.103c3.032 0 5.549 2.475 5.549 5.568 0 3.041-2.466 5.567-5.549 5.567h-19.268v4.64h19.268c5.549 0 10.122-4.588 10.122-10.156 0-5.567-4.573-10.155-10.122-10.155h-1.695v.051-.051h-2.981c-3.031 0-5.549-2.475-5.549-5.568 0-3.041 2.466-5.567 5.549-5.567h16.957v-4.64H161.85c-5.549 0-10.122 4.588-10.122 10.156 0 5.567 4.573 10.155 10.122 10.155H166.423z" clip-rule="evenodd"/></svg>