<svg xmlns="http://www.w3.org/2000/svg" fill="none" viewBox="0 0 209 187"><path fill="#E3E3E3" d="M58.134 122.691c9.683 0 17.215 2.959 22.595 8.876 5.917 5.918 8.876 13.45 8.876 22.595 0 21.519-12.373 32.278-37.12 32.278-16.139 0-28.781-5.917-37.927-17.753C5.413 156.314.84 138.83.84 116.235c0-21.519 4.842-41.424 14.525-59.715C25.05 37.691 39.305 19.131 58.134.84c.538-.538 1.345-.807 2.42-.807 1.615 0 2.96.807 4.035 2.421 1.076 1.614 1.076 2.959 0 4.035-26.36 26.898-39.54 58.639-39.54 95.221 0 15.063 2.69 26.091 8.07 33.085 4.84-8.07 13.18-12.104 25.015-12.104zm118.622 0c9.684 0 17.216 2.959 22.595 8.876 5.918 5.918 8.877 13.45 8.877 22.595 0 21.519-12.374 32.278-37.12 32.278-16.139 0-28.782-5.917-37.927-17.753-9.146-12.373-13.718-29.857-13.718-52.452 0-21.519 4.841-41.424 14.525-59.715 9.683-18.829 23.939-37.389 42.768-55.68.538-.538 1.345-.807 2.421-.807 1.614 0 2.959.807 4.035 2.421 1.076 1.614 1.076 2.959 0 4.035-26.36 26.898-39.541 58.639-39.541 95.221 0 15.063 2.69 26.091 8.07 33.085 4.842-8.07 13.18-12.104 25.015-12.104z"/></svg>