<svg xmlns="http://www.w3.org/2000/svg" fill="none" viewBox="0 0 148 75"><g fill-rule="evenodd" clip-path="url(#clip0)" clip-rule="evenodd"><path fill="#DA2927" d="M15.324 32.482c.085-.764 8.349-18.555 8.801-19.046l8.722 19.046H15.324zM24.067.412h-.064L.293 49.736l6.358.03c.644-.314.08.279.606-.587.112-.182.246-.526.341-.743.224-.517.426-.906.703-1.468l3.989-9.078H35.2c.66.132 2.822 5.253 3.088 5.815.538 1.143 2.328 5.5 3.115 6.061l6.368-.005c-.41-1.472-4.803-10.013-5.862-12.351-1.89-4.18-4.078-8.212-5.958-12.361-1.853-4.094-3.946-8.137-5.9-12.24A1242.63 1242.63 0 0 0 24.067.412z"/><path fill="#41201C" d="M42.129 24.81c1.693 4.24 3.551 8.41 5.41 12.615l14.813 34.114c.245.547.447.997.665 1.513.213.511.394 1.133.804 1.477l21.458-49.718h-6.496c-.532.152-3.472 7.635-3.903 8.662C73.18 37.481 64.343 59 63.677 59.74L48.933 24.816l-6.804-.005zM106.492 50.632l3.211.06.059-18.458 19.658 19.349v-25.74l-3.254-.045-.01 18.25c-.602-.293-4.601-4.397-5.005-4.821-1.581-1.66-3.243-3.203-4.835-4.868-.42-.44-.729-.8-1.166-1.214-.996-.962-8.034-8.086-8.658-8.395v25.882zM87.563 41.603c.123-.713 4.238-9.568 4.617-9.912l4.493 9.912h-9.11zm-7.907 9.028l3.408.066c.767-1.321 2.503-4.838 2.96-6.255h12.162c.314 1.068 2.375 5.308 2.971 6.25h3.339c-.123-.668-11.938-25.27-12.375-25.786-.538.592-8.285 17.082-9.435 19.385-1.049 2.11-2.029 4.412-3.03 6.34zM131.648 28.535l6.225.101-.006 22.051h3.264V28.616h6.219l-.005-2.839-15.686.005-.011 2.753z"/><path fill="#DA2927" d="M84.836 58.734c6.224-.96 7.763 7.828 1.55 8.704-6.71.946-7.839-7.732-1.55-8.704zm5.425.91c-1.528-1.32-3.663-2.54-6.815-1.598-5.234 1.559-5.303 8.632-.048 10.095 2.875.799 4.622.1 6.507-1.316.287-.217.005-.05.404-.253v7.58l1.209-.005-.059-16.182-1.123.035-.075 1.645zM112.274 58.738c2.763-.425 5.186 1.2 5.537 3.481.431 2.778-1.427 4.817-3.833 5.202-6.545 1.037-8.051-7.702-1.704-8.683zm5.516.906c-.745-.39-.932-1.129-2.865-1.65-8.125-2.2-11.016 8.177-3.924 10.155 4.041 1.124 5.91-1.2 6.784-1.68l.064 1.736h1.144l-.074-10.247-1.087-.005-.042 1.69zM137.286 67.264c.356-.672 9.195-8.475 9.781-9.305h-10.793l.048.926 8.179.036c-.836 1.23-9.377 8.475-9.755 9.284h9.59c2.881 0 2.8.355 2.8-.93l-9.85-.01zM95.431 57.957c0 2.11-.207 5.465.064 7.434.564 4.113 8.285 4.169 8.738-.228.154-1.488.17-5.712-.006-7.195l-1.107.02c-.597 4.655 1.581 9.664-3.472 9.502-2.327-.08-2.971-1.346-3.019-3.526l.016-4.843c-.005-1.325-.095-1.164-1.214-1.164zM129.832 58.854l1.326.076.053 9.275h1.145l.006-9.29 2.135-.056-.027-.885-2.108-.076v-3.603h-1.198v3.628l-1.348.101.016.83zM124.237 68.205c.25-2.22-.15-4.781.112-7.002.133-1.109.532-1.913 1.341-2.297 1.481-.709 1.651.612 2.513-.835-.165-.117.006-.102-.5-.248-1.895-.547-2.992.97-3.397 1.34l-.106-1.204h-1.102l.037 10.247h1.102z"/></g><defs><clipPath id="clip0"><path fill="#fff" d="M0 0h147.059v74.118H0z" transform="translate(.293 .412)"/></clipPath></defs></svg>